_Griffith_Gothic-Condensed_Ultra_WebTT.ufo
<glyph name="quotedbl" format="1">
  <advance width="835.584"/>
  <unicode hex="0022"/>
  <outline>
    <contour>
      <point x="37" y="1475" type="line"/>
      <point x="385" y="1475" type="line"/>
      <point x="299" y="817" type="line"/>
      <point x="123" y="817" type="line"/>
    </contour>
    <contour>
      <point x="449" y="1475" type="line"/>
      <point x="799" y="1475" type="line"/>
      <point x="711" y="817" type="line"/>
      <point x="537" y="817" type="line"/>
    </contour>
  </outline>
</glyph>
<glyph name="dollar" format="1">
  <advance width="995.328"/>
  <unicode hex="0024"/>
  <outline>
    <contour>
      <point x="565" y="879" type="line"/>
      <point x="771.71641791" y="794.671641791"/>
      <point x="979.0" y="588.955223881"/>
      <point x="979" y="430" type="qcurve" smooth="yes"/>
      <point x="979.0" y="243.432835821"/>
      <point x="763.402985075" y="21.6417910448"/>
      <point x="594" y="0" type="qcurve"/>
      <point x="594" y="-195" type="line"/>
      <point x="414" y="-195" type="line"/>
      <point x="414" y="-2" type="line"/>
      <point x="309.52238806" y="14.4179104478"/>
      <point x="90.328358209" y="122.089552239"/>
      <point x="6" y="240" type="qcurve"/>
      <point x="225" y="457" type="line"/>
      <point x="275.746268657" y="389.835820896"/>
      <point x="390.0" y="309.925373134"/>
      <point x="440" y="295" type="qcurve"/>
      <point x="440" y="586" type="line"/>
      <point x="298.208955224" y="647.194029851"/>
      <point x="31.0" y="842.313432836"/>
      <point x="31" y="1055" type="qcurve" smooth="yes"/>
      <point x="31.0" y="1225.89552239"/>
      <point x="230.417910448" y="1461.35820896"/>
      <point x="414" y="1483" type="qcurve"/>
      <point x="414" y="1561" type="line"/>
      <point x="590" y="1561" type="line"/>
      <point x="590" y="1481" type="line"/>
      <point x="709.402985075" y="1462.34328358"/>
      <point x="889.343283582" y="1356.26865672"/>
      <point x="958" y="1260" type="qcurve"/>
      <point x="729" y="1049" type="line"/>
      <point x="684.970149254" y="1103.47761194"/>
      <point x="603.059701493" y="1165.82089552"/>
      <point x="565" y="1180" type="qcurve"/>
    </contour>
    <contour>
      <point x="348" y="1081" type="qcurve" smooth="yes"/>
      <point x="348.0" y="1036.97014925"/>
      <point x="390.0" y="958.119402985"/>
      <point x="440" y="932" type="qcurve"/>
      <point x="440" y="1196" type="line"/>
      <point x="398.955223881" y="1188.53731343"/>
      <point x="348.0" y="1125.7761194"/>
    </contour>
    <contour>
      <point x="565" y="287" type="line"/>
      <point x="598.582089552" y="297.447761194"/>
      <point x="643.0" y="343.985074627"/>
      <point x="643" y="391" type="qcurve" smooth="yes"/>
      <point x="643.0" y="440.253731343"/>
      <point x="608.28358209" y="503.134328358"/>
      <point x="565" y="530" type="qcurve"/>
    </contour>
  </outline>
</glyph>
<glyph name="parenleft" format="1">
  <advance width="686.08"/>
  <unicode hex="0028"/>
  <outline>
    <contour>
      <point x="408" y="655" type="qcurve" smooth="yes"/>
      <point x="408.0" y="436.343283582"/>
      <point x="528.507462687" y="20.671641791"/>
      <point x="680" y="-195" type="qcurve"/>
      <point x="383" y="-195" type="line"/>
      <point x="245.686567164" y="-43.5074626866"/>
      <point x="49.0" y="374.402985075"/>
      <point x="49" y="655" type="qcurve" smooth="yes"/>
      <point x="49.0" y="936.343283582"/>
      <point x="245.686567164" y="1354.25373134"/>
      <point x="383" y="1505" type="qcurve"/>
      <point x="680" y="1505" type="line"/>
      <point x="528.507462687" y="1290.07462687"/>
      <point x="408.0" y="873.656716418"/>
    </contour>
  </outline>
</glyph>
<glyph name="parenright" format="1">
  <advance width="686.08"/>
  <unicode hex="0029"/>
  <outline>
    <contour>
      <point x="303" y="1505" type="line"/>
      <point x="440.313432836" y="1354.25373134"/>
      <point x="637.0" y="936.343283582"/>
      <point x="637" y="655" type="qcurve" smooth="yes"/>
      <point x="637.0" y="374.402985075"/>
      <point x="440.313432836" y="-43.5074626866"/>
      <point x="303" y="-195" type="qcurve"/>
      <point x="6" y="-195" type="line"/>
      <point x="157.492537313" y="20.671641791"/>
      <point x="279.0" y="436.343283582"/>
      <point x="279" y="655" type="qcurve" smooth="yes"/>
      <point x="279.0" y="873.656716418"/>
      <point x="157.492537313" y="1290.07462687"/>
      <point x="6" y="1505" type="qcurve"/>
    </contour>
  </outline>
</glyph>
<glyph name="asterisk" format="1">
  <advance width="675.84"/>
  <unicode hex="002A"/>
  <outline>
    <contour>
      <point x="571" y="1407" type="line"/>
      <point x="651" y="1163" type="line"/>
      <point x="424" y="1169" type="line"/>
      <point x="618" y="1040" type="line"/>
      <point x="410" y="887" type="line"/>
      <point x="338" y="1116" type="line"/>
      <point x="266" y="887" type="line"/>
      <point x="57" y="1040" type="line"/>
      <point x="252" y="1169" type="line"/>
      <point x="25" y="1163" type="line"/>
      <point x="104" y="1407" type="line"/>
      <point x="289" y="1257" type="line"/>
      <point x="207" y="1475" type="line"/>
      <point x="469" y="1475" type="line"/>
      <point x="387" y="1257" type="line"/>
    </contour>
  </outline>
</glyph>
<glyph name="hyphen" format="1">
  <advance width="593.92"/>
  <unicode hex="002D"/>
  <unicode hex="2010"/>
  <unicode hex="2011"/>
  <outline>
    <contour>
      <point x="545" y="758" type="line"/>
      <point x="545" y="442" type="line"/>
      <point x="49" y="442" type="line"/>
      <point x="49" y="758" type="line"/>
    </contour>
  </outline>
</glyph>
<glyph name="slash" format="1">
  <advance width="788.48"/>
  <unicode hex="002F"/>
  <outline>
    <contour>
      <point x="465" y="1505" type="line"/>
      <point x="778" y="1505" type="line"/>
      <point x="274" y="-195" type="line"/>
      <point x="-39" y="-195" type="line"/>
    </contour>
  </outline>
</glyph>
<glyph name="three" format="1">
  <advance width="937.984"/>
  <unicode hex="0033"/>
  <outline>
    <contour>
      <point x="608" y="829" type="line"/>
      <point x="742.328358209" y="821.537313433"/>
      <point x="915.0" y="648.268656716"/>
      <point x="915" y="502" type="qcurve" smooth="yes"/>
      <point x="915.0" y="266.179104478"/>
      <point x="474.447761194" y="-8.98507462687"/>
      <point x="14" y="-6" type="qcurve"/>
      <point x="14" y="297" type="line"/>
      <point x="318.47761194" y="304.462686567"/>
      <point x="524.0" y="422.179104478"/>
      <point x="524" y="508" type="qcurve" smooth="yes"/>
      <point x="524.0" y="570.686567164"/>
      <point x="464.985074627" y="629.0"/>
      <point x="412" y="629" type="qcurve" smooth="yes"/>
      <point x="379.910447761" y="629.0"/>
      <point x="304.059701493" y="610.925373134"/>
      <point x="266" y="596" type="qcurve"/>
      <point x="176" y="852" type="line"/>
      <point x="334.955223881" y="914.686567164"/>
      <point x="479.0" y="1040.80597015"/>
      <point x="479" y="1102" type="qcurve" smooth="yes"/>
      <point x="479.0" y="1155.73134328"/>
      <point x="434.074626866" y="1198.0"/>
      <point x="399" y="1198" type="qcurve" smooth="yes"/>
      <point x="353.47761194" y="1198.0"/>
      <point x="268.28358209" y="1123.11940299"/>
      <point x="225" y="1047" type="qcurve"/>
      <point x="20" y="1237" type="line"/>
      <point x="79.7014925373" y="1351.92537313"/>
      <point x="299.089552239" y="1505.0"/>
      <point x="467" y="1505" type="qcurve" smooth="yes"/>
      <point x="652.074626866" y="1505.0"/>
      <point x="848.0" y="1345.01492537"/>
      <point x="848" y="1198" type="qcurve" smooth="yes"/>
      <point x="848.0" y="1062.17910448"/>
      <point x="701.28358209" y="886.0"/>
      <point x="608" y="836" type="qcurve"/>
    </contour>
  </outline>
</glyph>
<glyph name="four" format="1">
  <advance width="995.328"/>
  <unicode hex="0034"/>
  <outline>
    <contour>
      <point x="975" y="563" type="line"/>
      <point x="975" y="354" type="line"/>
      <point x="856" y="354" type="line"/>
      <point x="856" y="0" type="line"/>
      <point x="483" y="0" type="line"/>
      <point x="483" y="354" type="line"/>
      <point x="25" y="354" type="line"/>
      <point x="25" y="590" type="line"/>
      <point x="412" y="1475" type="line"/>
      <point x="856" y="1475" type="line"/>
      <point x="856" y="563" type="line"/>
    </contour>
    <contour>
      <point x="260" y="563" type="line"/>
      <point x="483" y="563" type="line"/>
      <point x="483" y="1094" type="line"/>
      <point x="473" y="1094" type="line"/>
      <point x="260" y="575" type="line"/>
    </contour>
  </outline>
</glyph>
<glyph name="seven" format="1">
  <advance width="980.992"/>
  <unicode hex="0037"/>
  <outline>
    <contour>
      <point x="946" y="1475" type="line"/>
      <point x="946" y="1253" type="line"/>
      <point x="796.0" y="993.298507463"/>
      <point x="569.223880597" y="335.074626866"/>
      <point x="514" y="0" type="qcurve"/>
      <point x="123" y="0" type="line"/>
      <point x="178.223880597" y="302.985074627"/>
      <point x="407.0" y="919.388059701"/>
      <point x="557" y="1147" type="qcurve"/>
      <point x="31" y="1147" type="line"/>
      <point x="31" y="1475" type="line"/>
    </contour>
  </outline>
</glyph>
<glyph name="eight" format="1">
  <advance width="999.424"/>
  <unicode hex="0038"/>
  <outline>
    <contour>
      <point x="770" y="784" type="line"/>
      <point x="835.671641791" y="758.626865672"/>
      <point x="981.0" y="587.402985075"/>
      <point x="981" y="418" type="qcurve" smooth="yes"/>
      <point x="981.0" y="196.358208955"/>
      <point x="696.507462687" y="-25.0"/>
      <point x="498" y="-25" type="qcurve" smooth="yes"/>
      <point x="298.746268657" y="-25.0"/>
      <point x="18.0" y="194.358208955"/>
      <point x="18" y="416" type="qcurve" smooth="yes"/>
      <point x="18.0" y="588.388059701"/>
      <point x="162.313432836" y="759.611940299"/>
      <point x="225" y="782" type="qcurve"/>
      <point x="225" y="788" type="line"/>
      <point x="170.52238806" y="814.119402985"/>
      <point x="51.0" y="955.462686567"/>
      <point x="51" y="1098" type="qcurve" smooth="yes"/>
      <point x="51.0" y="1283.07462687"/>
      <point x="298.746268657" y="1499.0"/>
      <point x="498" y="1499" type="qcurve" smooth="yes"/>
      <point x="698.0" y="1499.0"/>
      <point x="948.0" y="1287.07462687"/>
      <point x="948" y="1102" type="qcurve" smooth="yes"/>
      <point x="948.0" y="962.447761194"/>
      <point x="823.731343284" y="814.119402985"/>
      <point x="770" y="788" type="qcurve"/>
    </contour>
    <contour>
      <point x="496" y="240" type="qcurve" smooth="yes"/>
      <point x="558.686567164" y="240.0"/>
      <point x="602.0" y="345.253731343"/>
      <point x="602" y="446" type="qcurve" smooth="yes"/>
      <point x="602.0" y="548.985074627"/>
      <point x="558.686567164" y="657.0"/>
      <point x="496" y="657" type="qcurve" smooth="yes"/>
      <point x="433.313432836" y="657.0"/>
      <point x="393.0" y="551.746268657"/>
      <point x="393" y="451" type="qcurve" smooth="yes"/>
      <point x="393.0" y="349.507462687"/>
      <point x="430.328358209" y="240.0"/>
    </contour>
    <contour>
      <point x="498" y="895" type="qcurve" smooth="yes"/>
      <point x="552.47761194" y="895.0"/>
      <point x="588.0" y="968.223880597"/>
      <point x="588" y="1063" type="qcurve" smooth="yes"/>
      <point x="588.0" y="1157.7761194"/>
      <point x="552.47761194" y="1235.0"/>
      <point x="498" y="1235" type="qcurve" smooth="yes"/>
      <point x="442.776119403" y="1235.0"/>
      <point x="412.0" y="1149.32835821"/>
      <point x="412" y="1065" type="qcurve" smooth="yes"/>
      <point x="412.0" y="980.671641791"/>
      <point x="442.776119403" y="895.0"/>
    </contour>
  </outline>
</glyph>
<glyph name="semicolon" format="1">
  <advance width="507.904"/>
  <unicode hex="003B"/>
  <outline>
    <contour>
      <point x="264" y="1124" type="qcurve" smooth="yes"/>
      <point x="346.835820896" y="1124.0"/>
      <point x="459.0" y="1012.08955224"/>
      <point x="459" y="930" type="qcurve" smooth="yes"/>
      <point x="459.0" y="847.164179104"/>
      <point x="346.835820896" y="735.0"/>
      <point x="264" y="735" type="qcurve" smooth="yes"/>
      <point x="181.910447761" y="735.0"/>
      <point x="70.0" y="847.164179104"/>
      <point x="70" y="930" type="qcurve" smooth="yes"/>
      <point x="70.0" y="1012.08955224"/>
      <point x="181.910447761" y="1124.0"/>
    </contour>
    <contour>
      <point x="94" y="365" type="line"/>
      <point x="457" y="365" type="line"/>
      <point x="219" y="-231" type="line"/>
      <point x="49" y="-231" type="line"/>
    </contour>
  </outline>
</glyph>
<glyph name="equal" format="1">
  <advance width="968.704"/>
  <unicode hex="003D"/>
  <outline>
    <contour>
      <point x="899" y="633" type="line"/>
      <point x="899" y="340" type="line"/>
      <point x="70" y="340" type="line"/>
      <point x="70" y="633" type="line"/>
    </contour>
    <contour>
      <point x="899" y="1165" type="line"/>
      <point x="899" y="872" type="line"/>
      <point x="70" y="872" type="line"/>
      <point x="70" y="1165" type="line"/>
    </contour>
  </outline>
</glyph>
<glyph name="greater" format="1">
  <advance width="978.944"/>
  <unicode hex="003E"/>
  <outline>
    <contour>
      <point x="930" y="891" type="line"/>
      <point x="930" y="563" type="line"/>
      <point x="55" y="121" type="line"/>
      <point x="55" y="483" type="line"/>
      <point x="606" y="727" type="line"/>
      <point x="55" y="971" type="line"/>
      <point x="55" y="1333" type="line"/>
    </contour>
  </outline>
</glyph>
<glyph name="question" format="1">
  <advance width="933.888"/>
  <unicode hex="003F"/>
  <outline>
    <contour>
      <point x="479" y="1499" type="qcurve" smooth="yes"/>
      <point x="693.179104478" y="1499.0"/>
      <point x="907.0" y="1275.82089552"/>
      <point x="907" y="1090" type="qcurve" smooth="yes"/>
      <point x="907.0" y="932.537313433"/>
      <point x="786.746268657" y="752.119402985"/>
      <point x="686" y="676" type="qcurve" smooth="yes"/>
      <point x="611.373134328" y="619.28358209"/>
      <point x="543.194029851" y="532.223880597"/>
      <point x="532" y="477" type="qcurve"/>
      <point x="317" y="477" type="line"/>
      <point x="280.432835821" y="611.328358209"/>
      <point x="334.776119403" y="784.76119403"/>
      <point x="440" y="887" type="qcurve" smooth="yes"/>
      <point x="490.746268657" y="935.507462687"/>
      <point x="539.0" y="1024.04477612"/>
      <point x="539" y="1083" type="qcurve" smooth="yes"/>
      <point x="539.0" y="1145.68656716"/>
      <point x="500.074626866" y="1206.0"/>
      <point x="465" y="1206" type="qcurve" smooth="yes"/>
      <point x="418.731343284" y="1206.0"/>
      <point x="357.582089552" y="1109.49253731"/>
      <point x="324" y="958" type="qcurve"/>
      <point x="6" y="1059" type="line"/>
      <point x="42.5671641791" y="1273.17910448"/>
      <point x="260.343283582" y="1499.0"/>
    </contour>
    <contour>
      <point x="432" y="375" type="qcurve" smooth="yes"/>
      <point x="514.835820896" y="375.0"/>
      <point x="627.0" y="262.835820896"/>
      <point x="627" y="180" type="qcurve" smooth="yes"/>
      <point x="627.0" y="97.9104477612"/>
      <point x="514.835820896" y="-14.0"/>
      <point x="432" y="-14" type="qcurve" smooth="yes"/>
      <point x="349.910447761" y="-14.0"/>
      <point x="238.0" y="97.9104477612"/>
      <point x="238" y="180" type="qcurve" smooth="yes"/>
      <point x="238.0" y="262.835820896"/>
      <point x="349.910447761" y="375.0"/>
    </contour>
  </outline>
</glyph>
<glyph name="A" format="1">
  <advance width="1171.456"/>
  <unicode hex="0041"/>
  <outline>
    <contour>
      <point x="850" y="1481" type="line"/>
      <point x="1165" y="0" type="line"/>
      <point x="754" y="0" type="line"/>
      <point x="709" y="295" type="line"/>
      <point x="446" y="295" type="line"/>
      <point x="401" y="0" type="line"/>
      <point x="6" y="0" type="line"/>
      <point x="322" y="1481" type="line"/>
    </contour>
    <contour>
      <point x="487" y="573" type="line"/>
      <point x="668" y="573" type="line"/>
      <point x="582" y="1143" type="line"/>
      <point x="573" y="1143" type="line"/>
    </contour>
  </outline>
</glyph>
<glyph name="B" format="1">
  <advance width="1009.664"/>
  <unicode hex="0042"/>
  <outline>
    <contour>
      <point x="750" y="776" type="line"/>
      <point x="868.656716418" y="730.47761194"/>
      <point x="1001.0" y="559.253731343"/>
      <point x="1001" y="410" type="qcurve" smooth="yes"/>
      <point x="1001.0" y="213.731343284"/>
      <point x="740.567164179" y="0.0"/>
      <point x="504" y="0" type="qcurve" smooth="yes"/>
      <point x="55" y="0" type="line"/>
      <point x="55" y="1475" type="line"/>
      <point x="498" y="1475" type="line" smooth="yes"/>
      <point x="714.417910448" y="1475.0"/>
      <point x="961.0" y="1284.08955224"/>
      <point x="961" y="1102" type="qcurve" smooth="yes"/>
      <point x="961.0" y="969.164179104"/>
      <point x="829.104477612" y="817.582089552"/>
      <point x="750" y="784" type="qcurve"/>
    </contour>
    <contour>
      <point x="453" y="260" type="line" smooth="yes"/>
      <point x="533.597014925" y="260.0"/>
      <point x="623.0" y="352.52238806"/>
      <point x="623" y="457" type="qcurve" smooth="yes"/>
      <point x="623.0" y="559.23880597"/>
      <point x="532.104477612" y="651.0"/>
      <point x="453" y="651" type="qcurve" smooth="yes"/>
      <point x="434" y="651" type="line"/>
      <point x="434" y="260" type="line"/>
    </contour>
    <contour>
      <point x="459" y="887" type="line" smooth="yes"/>
      <point x="523.179104478" y="887.0"/>
      <point x="592.0" y="973.656716418"/>
      <point x="592" y="1055" type="qcurve" smooth="yes"/>
      <point x="592.0" y="1135.59701493"/>
      <point x="523.179104478" y="1214.0"/>
      <point x="459" y="1214" type="qcurve" smooth="yes"/>
      <point x="434" y="1214" type="line"/>
      <point x="434" y="887" type="line"/>
    </contour>
  </outline>
</glyph>
<glyph name="E" format="1">
  <advance width="894.976"/>
  <unicode hex="0045"/>
  <outline>
    <contour>
      <point x="862" y="319" type="line"/>
      <point x="862" y="0" type="line"/>
      <point x="55" y="0" type="line"/>
      <point x="55" y="1475" type="line"/>
      <point x="846" y="1475" type="line"/>
      <point x="846" y="1155" type="line"/>
      <point x="446" y="1155" type="line"/>
      <point x="446" y="909" type="line"/>
      <point x="715" y="909" type="line"/>
      <point x="715" y="606" type="line"/>
      <point x="446" y="606" type="line"/>
      <point x="446" y="319" type="line"/>
    </contour>
  </outline>
</glyph>
<glyph name="F" format="1">
  <advance width="858.112"/>
  <unicode hex="0046"/>
  <outline>
    <contour>
      <point x="827" y="1475" type="line"/>
      <point x="827" y="1151" type="line"/>
      <point x="451" y="1151" type="line"/>
      <point x="451" y="866" type="line"/>
      <point x="715" y="866" type="line"/>
      <point x="715" y="555" type="line"/>
      <point x="451" y="555" type="line"/>
      <point x="451" y="0" type="line"/>
      <point x="55" y="0" type="line"/>
      <point x="55" y="1475" type="line"/>
    </contour>
  </outline>
</glyph>
<glyph name="G" format="1">
  <advance width="1073.152"/>
  <unicode hex="0047"/>
  <outline>
    <contour>
      <point x="1022" y="713" type="line"/>
      <point x="1022" y="-2" type="line"/>
      <point x="899" y="-2" type="line"/>
      <point x="848" y="221" type="line"/>
      <point x="842" y="221" type="line"/>
      <point x="798.71641791" y="121.746268657"/>
      <point x="631.537313433" y="-25.0"/>
      <point x="489" y="-25" type="qcurve" smooth="yes"/>
      <point x="287.507462687" y="-25.0"/>
      <point x="41.0" y="290.567164179"/>
      <point x="41" y="604" type="qcurve" smooth="yes"/>
      <point x="41" y="874" type="line" smooth="yes"/>
      <point x="41.0" y="1200.11940299"/>
      <point x="319.328358209" y="1499.0"/>
      <point x="535" y="1499" type="qcurve" smooth="yes"/>
      <point x="774.552238806" y="1499.0"/>
      <point x="985.343283582" y="1219.05970149"/>
      <point x="1004" y="981" type="qcurve"/>
      <point x="629" y="897" type="line"/>
      <point x="624.52238806" y="1070.88059701"/>
      <point x="583.507462687" y="1198.0"/>
      <point x="535" y="1198" type="qcurve" smooth="yes"/>
      <point x="479.776119403" y="1198.0"/>
      <point x="442.0" y="1057.85074627"/>
      <point x="442" y="928" type="qcurve" smooth="yes"/>
      <point x="442" y="553" type="line" smooth="yes"/>
      <point x="442.0" y="405.985074627"/>
      <point x="489.268656716" y="276.0"/>
      <point x="543" y="276" type="qcurve" smooth="yes"/>
      <point x="595.985074627" y="276.0"/>
      <point x="651.0" y="401.402985075"/>
      <point x="651" y="582" type="qcurve"/>
      <point x="545" y="582" type="line"/>
      <point x="545" y="713" type="line"/>
    </contour>
  </outline>
</glyph>
<glyph name="K" format="1">
  <advance width="1130.496"/>
  <unicode hex="004B"/>
  <outline>
    <contour>
      <point x="860" y="799" type="line"/>
      <point x="1137" y="0" type="line"/>
      <point x="700" y="0" type="line"/>
      <point x="469" y="776" type="line"/>
      <point x="469" y="780" type="line"/>
      <point x="696" y="1475" type="line"/>
      <point x="1114" y="1475" type="line"/>
    </contour>
    <contour>
      <point x="457" y="1475" type="line"/>
      <point x="457" y="0" type="line"/>
      <point x="55" y="0" type="line"/>
      <point x="55" y="1475" type="line"/>
    </contour>
  </outline>
</glyph>
<glyph name="L" format="1">
  <advance width="847.872"/>
  <unicode hex="004C"/>
  <outline>
    <contour>
      <point x="821" y="328" type="line"/>
      <point x="821" y="0" type="line"/>
      <point x="55" y="0" type="line"/>
      <point x="55" y="1475" type="line"/>
      <point x="457" y="1475" type="line"/>
      <point x="457" y="328" type="line"/>
    </contour>
  </outline>
</glyph>
<glyph name="O" format="1">
  <advance width="1081.344"/>
  <unicode hex="004F"/>
  <outline>
    <contour>
      <point x="1040" y="874" type="qcurve" smooth="yes"/>
      <point x="1040" y="600" type="line" smooth="yes"/>
      <point x="1040.0" y="274.626865672"/>
      <point x="759.656716418" y="-25.0"/>
      <point x="541" y="-25" type="qcurve" smooth="yes"/>
      <point x="322.343283582" y="-25.0"/>
      <point x="41.0" y="274.626865672"/>
      <point x="41" y="600" type="qcurve" smooth="yes"/>
      <point x="41" y="874" type="line" smooth="yes"/>
      <point x="41.0" y="1200.11940299"/>
      <point x="322.343283582" y="1499.0"/>
      <point x="541" y="1499" type="qcurve" smooth="yes"/>
      <point x="759.656716418" y="1499.0"/>
      <point x="1040.0" y="1200.11940299"/>
    </contour>
    <contour>
      <point x="541" y="266" type="qcurve" smooth="yes"/>
      <point x="596.970149254" y="266.0"/>
      <point x="639.0" y="383.552238806"/>
      <point x="639" y="494" type="qcurve" smooth="yes"/>
      <point x="639" y="981" type="line" smooth="yes"/>
      <point x="639.0" y="1090.70149254"/>
      <point x="596.970149254" y="1208.0"/>
      <point x="541" y="1208" type="qcurve" smooth="yes"/>
      <point x="484.28358209" y="1208.0"/>
      <point x="442.0" y="1090.70149254"/>
      <point x="442" y="981" type="qcurve" smooth="yes"/>
      <point x="442" y="494" type="line" smooth="yes"/>
      <point x="442.0" y="383.552238806"/>
      <point x="484.28358209" y="266.0"/>
    </contour>
  </outline>
</glyph>
<glyph name="P" format="1">
  <advance width="991.232"/>
  <unicode hex="0050"/>
  <outline>
    <contour>
      <point x="471" y="1475" type="line" smooth="yes"/>
      <point x="706.074626866" y="1475.0"/>
      <point x="981.0" y="1244.05970149"/>
      <point x="981" y="1006" type="qcurve" smooth="yes"/>
      <point x="981.0" y="753.76119403"/>
      <point x="708.582089552" y="502.0"/>
      <point x="475" y="502" type="qcurve" smooth="yes"/>
      <point x="449" y="502" type="line"/>
      <point x="449" y="0" type="line"/>
      <point x="57" y="0" type="line"/>
      <point x="57" y="1475" type="line"/>
    </contour>
    <contour>
      <point x="469" y="799" type="line" smooth="yes"/>
      <point x="539.149253731" y="799.0"/>
      <point x="602.0" y="903.71641791"/>
      <point x="602" y="997" type="qcurve" smooth="yes"/>
      <point x="602.0" y="1088.79104478"/>
      <point x="536.164179104" y="1184.0"/>
      <point x="469" y="1184" type="qcurve" smooth="yes"/>
      <point x="449" y="1184" type="line"/>
      <point x="449" y="799" type="line"/>
    </contour>
  </outline>
</glyph>
<glyph name="R" format="1">
  <advance width="1026.048"/>
  <unicode hex="0052"/>
  <outline>
    <contour>
      <point x="807" y="653" type="qcurve"/>
      <point x="1026" y="0" type="line"/>
      <point x="625" y="0" type="line"/>
      <point x="475" y="516" type="line"/>
      <point x="446" y="516" type="line"/>
      <point x="446" y="0" type="line"/>
      <point x="55" y="0" type="line"/>
      <point x="55" y="1475" type="line"/>
      <point x="492" y="1475" type="line" smooth="yes"/>
      <point x="716.626865672" y="1475.0"/>
      <point x="981.0" y="1248.08955224"/>
      <point x="981" y="1016" type="qcurve" smooth="yes"/>
      <point x="981.0" y="889.134328358"/>
      <point x="887.597014925" y="705.23880597"/>
    </contour>
    <contour>
      <point x="465" y="784" type="line" smooth="yes"/>
      <point x="535.149253731" y="784.0"/>
      <point x="598.0" y="897.208955224"/>
      <point x="598" y="989" type="qcurve" smooth="yes"/>
      <point x="598.0" y="1082.28358209"/>
      <point x="532.164179104" y="1184.0"/>
      <point x="465" y="1184" type="qcurve" smooth="yes"/>
      <point x="446" y="1184" type="line"/>
      <point x="446" y="784" type="line"/>
    </contour>
  </outline>
</glyph>
<glyph name="S" format="1">
  <advance width="1009.664"/>
  <unicode hex="0053"/>
  <outline>
    <contour>
      <point x="608" y="918" type="qcurve" smooth="yes"/>
      <point x="831.134328358" y="830.686567164"/>
      <point x="987.0" y="605.104477612"/>
      <point x="987" y="426" type="qcurve" smooth="yes"/>
      <point x="987.0" y="216.298507463"/>
      <point x="726.686567164" y="-18.0"/>
      <point x="514" y="-18" type="qcurve" smooth="yes"/>
      <point x="355.044776119" y="-18.0"/>
      <point x="125.746268657" y="97.1791044776"/>
      <point x="25" y="233" type="qcurve"/>
      <point x="279" y="457" type="line"/>
      <point x="349.149253731" y="368.194029851"/>
      <point x="472.029850746" y="295.0"/>
      <point x="528" y="295" type="qcurve" smooth="yes"/>
      <point x="577.253731343" y="295.0"/>
      <point x="629.0" y="345.955223881"/>
      <point x="629" y="387" type="qcurve" smooth="yes"/>
      <point x="629.0" y="439.23880597"/>
      <point x="528.149253731" y="514.492537313"/>
      <point x="408" y="563" type="qcurve" smooth="yes"/>
      <point x="208.746268657" y="644.343283582"/>
      <point x="49.0" y="865.447761194"/>
      <point x="49" y="1055" type="qcurve" smooth="yes"/>
      <point x="49.0" y="1241.56716418"/>
      <point x="285.313432836" y="1493.0"/>
      <point x="498" y="1493" type="qcurve" smooth="yes"/>
      <point x="667.402985075" y="1493.0"/>
      <point x="876.671641791" y="1372.91044776"/>
      <point x="961" y="1255" type="qcurve"/>
      <point x="707" y="1032" type="line"/>
      <point x="639.089552239" y="1119.31343284"/>
      <point x="540.731343284" y="1180.0"/>
      <point x="487" y="1180" type="qcurve" smooth="yes"/>
      <point x="444.462686567" y="1180.0"/>
      <point x="397.0" y="1130.56716418"/>
      <point x="397" y="1094" type="qcurve" smooth="yes"/>
      <point x="397.0" y="1046.23880597"/>
      <point x="473.671641791" y="969.492537313"/>
    </contour>
  </outline>
</glyph>
<glyph name="V" format="1">
  <advance width="1130.496"/>
  <unicode hex="0056"/>
  <outline>
    <contour>
      <point x="719" y="1475" type="line"/>
      <point x="1124" y="1475" type="line"/>
      <point x="799" y="-6" type="line"/>
      <point x="332" y="-6" type="line"/>
      <point x="6" y="1475" type="line"/>
      <point x="428" y="1475" type="line"/>
      <point x="569" y="537" type="line"/>
      <point x="578" y="537" type="line"/>
    </contour>
  </outline>
</glyph>
<glyph name="W" format="1">
  <advance width="1622.016"/>
  <unicode hex="0057"/>
  <outline>
    <contour>
      <point x="1227" y="1475" type="line"/>
      <point x="1612" y="1475" type="line"/>
      <point x="1411" y="-8" type="line"/>
      <point x="922" y="-8" type="line"/>
      <point x="815" y="946" type="line"/>
      <point x="807" y="946" type="line"/>
      <point x="700" y="-8" type="line"/>
      <point x="211" y="-8" type="line"/>
      <point x="10" y="1475" type="line"/>
      <point x="406" y="1475" type="line"/>
      <point x="479" y="494" type="line"/>
      <point x="485" y="494" type="line"/>
      <point x="573" y="1475" type="line"/>
      <point x="1059" y="1475" type="line"/>
      <point x="1147" y="494" type="line"/>
      <point x="1153" y="494" type="line"/>
    </contour>
  </outline>
</glyph>
<glyph name="X" format="1">
  <advance width="1087.488"/>
  <unicode hex="0058"/>
  <outline>
    <contour>
      <point x="782" y="768" type="line"/>
      <point x="1077" y="0" type="line"/>
      <point x="635" y="0" type="line"/>
      <point x="518" y="424" type="line"/>
      <point x="383" y="0" type="line"/>
      <point x="10" y="0" type="line"/>
      <point x="307" y="750" type="line"/>
      <point x="31" y="1475" type="line"/>
      <point x="473" y="1475" type="line"/>
      <point x="571" y="1092" type="line"/>
      <point x="686" y="1475" type="line"/>
      <point x="1057" y="1475" type="line"/>
    </contour>
  </outline>
</glyph>
<glyph name="Y" format="1">
  <advance width="1050.624"/>
  <unicode hex="0059"/>
  <outline>
    <contour>
      <point x="678" y="1475" type="line"/>
      <point x="1051" y="1475" type="line"/>
      <point x="727" y="600" type="line"/>
      <point x="727" y="0" type="line"/>
      <point x="326" y="0" type="line"/>
      <point x="326" y="592" type="line"/>
      <point x="0" y="1475" type="line"/>
      <point x="428" y="1475" type="line"/>
      <point x="553" y="983" type="line"/>
    </contour>
  </outline>
</glyph>
<glyph name="backslash" format="1">
  <advance width="788.48"/>
  <unicode hex="005C"/>
  <outline>
    <contour>
      <point x="324" y="1505" type="line"/>
      <point x="827" y="-195" type="line"/>
      <point x="514" y="-195" type="line"/>
      <point x="10" y="1505" type="line"/>
    </contour>
  </outline>
</glyph>
<glyph name="bracketright" format="1">
  <advance width="700.416"/>
  <unicode hex="005D"/>
  <outline>
    <contour>
      <point x="612" y="1497" type="line"/>
      <point x="612" y="-186" type="line"/>
      <point x="35" y="-164" type="line"/>
      <point x="35" y="-10" type="line"/>
      <point x="297" y="-20" type="line"/>
      <point x="297" y="1331" type="line"/>
      <point x="35" y="1321" type="line"/>
      <point x="35" y="1475" type="line"/>
    </contour>
  </outline>
</glyph>
<glyph name="grave" format="1">
  <advance width="819.2"/>
  <unicode hex="0060"/>
  <outline>
    <contour>
      <point x="518" y="1475" type="line"/>
      <point x="635" y="1192" type="line"/>
      <point x="383" y="1192" type="line"/>
      <point x="121" y="1475" type="line"/>
    </contour>
  </outline>
</glyph>
<glyph name="a" format="1">
  <advance width="937.984"/>
  <unicode hex="0061"/>
  <outline>
    <contour>
      <point x="930" y="129" type="qcurve"/>
      <point x="930" y="-10" type="line"/>
      <point x="755.373134328" y="-10.0"/>
      <point x="567.791044776" y="71.328358209"/>
      <point x="526" y="137" type="qcurve"/>
      <point x="514" y="137" type="line"/>
      <point x="474.447761194" y="75.8059701493"/>
      <point x="351.820895522" y="-10.0"/>
      <point x="266" y="-10" type="qcurve" smooth="yes"/>
      <point x="150.328358209" y="-10.0"/>
      <point x="12.0" y="146.462686567"/>
      <point x="12" y="289" type="qcurve" smooth="yes"/>
      <point x="12.0" y="449.447761194"/>
      <point x="247.253731343" y="638.388059701"/>
      <point x="498" y="666" type="qcurve"/>
      <point x="498" y="748" type="line" smooth="yes"/>
      <point x="498.0" y="795.014925373"/>
      <point x="449.268656716" y="852.0"/>
      <point x="403" y="852" type="qcurve" smooth="yes"/>
      <point x="357.47761194" y="852.0"/>
      <point x="233.805970149" y="816.23880597"/>
      <point x="145" y="764" type="qcurve"/>
      <point x="49" y="989" type="line"/>
      <point x="156.462686567" y="1051.68656716"/>
      <point x="392.626865672" y="1122.0"/>
      <point x="518" y="1122" type="qcurve" smooth="yes"/>
      <point x="703.074626866" y="1122.0"/>
      <point x="868.0" y="964.597014925"/>
      <point x="868" y="784" type="qcurve" smooth="yes"/>
      <point x="868" y="221" type="line" smooth="yes"/>
      <point x="868.0" y="172.492537313"/>
      <point x="893.432835821" y="137.955223881"/>
    </contour>
    <contour>
      <point x="453" y="225" type="qcurve" smooth="yes"/>
      <point x="466.432835821" y="225.0"/>
      <point x="486.805970149" y="228.52238806"/>
      <point x="498" y="233" type="qcurve"/>
      <point x="498" y="522" type="line"/>
      <point x="421.134328358" y="499.611940299"/>
      <point x="367.0" y="407.671641791"/>
      <point x="367" y="342" type="qcurve" smooth="yes"/>
      <point x="367.0" y="282.298507463"/>
      <point x="412.701492537" y="225.0"/>
    </contour>
  </outline>
</glyph>
<glyph name="f" format="1">
  <advance width="686.08"/>
  <unicode hex="0066"/>
  <outline>
    <contour>
      <point x="711" y="1532" type="qcurve"/>
      <point x="711" y="1290" type="line"/>
      <point x="683.388059701" y="1299.70149254"/>
      <point x="639.104477612" y="1307.0"/>
      <point x="610" y="1307" type="qcurve" smooth="yes"/>
      <point x="560.0" y="1307.0"/>
      <point x="506.0" y="1252.68656716"/>
      <point x="506" y="1190" type="qcurve" smooth="yes"/>
      <point x="506" y="1106" type="line"/>
      <point x="678" y="1106" type="line"/>
      <point x="678" y="858" type="line"/>
      <point x="506" y="858" type="line"/>
      <point x="506" y="0" type="line"/>
      <point x="135" y="0" type="line"/>
      <point x="135" y="858" type="line"/>
      <point x="4" y="858" type="line"/>
      <point x="4" y="1106" type="line"/>
      <point x="135" y="1106" type="line"/>
      <point x="135" y="1223" type="line" smooth="yes"/>
      <point x="135.0" y="1384.94029851"/>
      <point x="312.104477612" y="1554.0"/>
      <point x="483" y="1554" type="qcurve" smooth="yes"/>
      <point x="565.835820896" y="1554.0"/>
      <point x="661.746268657" y="1543.94029851"/>
    </contour>
  </outline>
</glyph>
<glyph name="i" format="1">
  <advance width="487.424"/>
  <unicode hex="0069"/>
  <outline>
    <contour>
      <point x="434" y="1110" type="line"/>
      <point x="434" y="0" type="line"/>
      <point x="53" y="0" type="line"/>
      <point x="53" y="1110" type="line"/>
    </contour>
    <contour>
      <point x="436" y="1475" type="line"/>
      <point x="436" y="1204" type="line"/>
      <point x="51" y="1204" type="line"/>
      <point x="51" y="1475" type="line"/>
    </contour>
  </outline>
</glyph>
<glyph name="k" format="1">
  <advance width="1007.616"/>
  <unicode hex="006B"/>
  <outline>
    <contour>
      <point x="805" y="567" type="line"/>
      <point x="1014" y="0" type="line"/>
      <point x="614" y="0" type="line"/>
      <point x="440" y="557" type="line"/>
      <point x="440" y="563" type="line"/>
      <point x="608" y="1110" type="line"/>
      <point x="1001" y="1110" type="line"/>
    </contour>
    <contour>
      <point x="430" y="1544" type="line"/>
      <point x="430" y="0" type="line"/>
      <point x="49" y="0" type="line"/>
      <point x="49" y="1495" type="line"/>
    </contour>
  </outline>
</glyph>
<glyph name="l" format="1">
  <advance width="487.424"/>
  <unicode hex="006C"/>
  <outline>
    <contour>
      <point x="434" y="1544" type="line"/>
      <point x="434" y="0" type="line"/>
      <point x="53" y="0" type="line"/>
      <point x="53" y="1495" type="line"/>
    </contour>
  </outline>
</glyph>
<glyph name="n" format="1">
  <advance width="974.848"/>
  <unicode hex="006E"/>
  <outline>
    <contour>
      <point x="930" y="852" type="qcurve" smooth="yes"/>
      <point x="930" y="0" type="line"/>
      <point x="549" y="0" type="line"/>
      <point x="549" y="760" type="line" smooth="yes"/>
      <point x="549.0" y="799.552238806"/>
      <point x="521.089552239" y="840.0"/>
      <point x="489" y="840" type="qcurve" smooth="yes"/>
      <point x="474.074626866" y="840.0"/>
      <point x="445.671641791" y="831.208955224"/>
      <point x="430" y="823" type="qcurve"/>
      <point x="430" y="0" type="line"/>
      <point x="49" y="0" type="line"/>
      <point x="49" y="1077" type="line"/>
      <point x="430" y="1126" type="line"/>
      <point x="430" y="922" type="line"/>
      <point x="436" y="922" type="line"/>
      <point x="514.358208955" y="1030.20895522"/>
      <point x="643.149253731" y="1124.0"/>
      <point x="723" y="1124" type="qcurve" smooth="yes"/>
      <point x="817.776119403" y="1124.0"/>
      <point x="930.0" y="990.805970149"/>
    </contour>
  </outline>
</glyph>
<glyph name="p" format="1">
  <advance width="970.752"/>
  <unicode hex="0070"/>
  <outline>
    <contour>
      <point x="938" y="602" type="qcurve" smooth="yes"/>
      <point x="938" y="508" type="line" smooth="yes"/>
      <point x="938.0" y="225.164179104"/>
      <point x="780.208955224" y="-14.0"/>
      <point x="672" y="-14" type="qcurve" smooth="yes"/>
      <point x="592.149253731" y="-14.0"/>
      <point x="481.76119403" y="82.6567164179"/>
      <point x="434" y="164" type="qcurve"/>
      <point x="430" y="164" type="line"/>
      <point x="430" y="-385" type="line"/>
      <point x="49" y="-385" type="line"/>
      <point x="49" y="1077" type="line"/>
      <point x="430" y="1126" type="line"/>
      <point x="430" y="936" type="line"/>
      <point x="434" y="936" type="line"/>
      <point x="481.76119403" y="1021.82089552"/>
      <point x="592.149253731" y="1124.0"/>
      <point x="672" y="1124" type="qcurve" smooth="yes"/>
      <point x="780.208955224" y="1124.0"/>
      <point x="938.0" y="884.835820896"/>
    </contour>
    <contour>
      <point x="492" y="242" type="qcurve" smooth="yes"/>
      <point x="527.074626866" y="242.0"/>
      <point x="563.0" y="371.417910448"/>
      <point x="563" y="555" type="qcurve" smooth="yes"/>
      <point x="563.0" y="738.582089552"/>
      <point x="527.074626866" y="868.0"/>
      <point x="492" y="868" type="qcurve" smooth="yes"/>
      <point x="456.179104478" y="868.0"/>
      <point x="420.0" y="738.582089552"/>
      <point x="420" y="555" type="qcurve" smooth="yes"/>
      <point x="420.0" y="371.417910448"/>
      <point x="456.179104478" y="242.0"/>
    </contour>
  </outline>
</glyph>
<glyph name="r" format="1">
  <advance width="761.856"/>
  <unicode hex="0072"/>
  <outline>
    <contour>
      <point x="756" y="1128" type="qcurve"/>
      <point x="756" y="725" type="line"/>
      <point x="644.059701493" y="713.059701493"/>
      <point x="489.701492537" y="661.059701493"/>
      <point x="430" y="623" type="qcurve"/>
      <point x="430" y="0" type="line"/>
      <point x="49" y="0" type="line"/>
      <point x="49" y="1077" type="line"/>
      <point x="430" y="1126" type="line"/>
      <point x="430" y="756" type="line"/>
      <point x="438" y="756" type="line"/>
      <point x="520.835820896" y="951.52238806"/>
      <point x="671.671641791" y="1117.55223881"/>
    </contour>
  </outline>
</glyph>
<glyph name="t" format="1">
  <advance width="741.376"/>
  <unicode hex="0074"/>
  <outline>
    <contour>
      <point x="707" y="305" type="qcurve"/>
      <point x="707" y="55" type="line"/>
      <point x="633.119402985" y="18.4328358209"/>
      <point x="488.626865672" y="-16.0"/>
      <point x="414" y="-16" type="qcurve" smooth="yes"/>
      <point x="262.507462687" y="-16.0"/>
      <point x="129.0" y="116.71641791"/>
      <point x="129" y="260" type="qcurve" smooth="yes"/>
      <point x="129" y="858" type="line"/>
      <point x="4" y="858" type="line"/>
      <point x="4" y="1106" type="line"/>
      <point x="129" y="1106" type="line"/>
      <point x="129" y="1444" type="line"/>
      <point x="500" y="1491" type="line"/>
      <point x="500" y="1106" type="line"/>
      <point x="690" y="1106" type="line"/>
      <point x="690" y="858" type="line"/>
      <point x="500" y="858" type="line"/>
      <point x="500" y="350" type="line" smooth="yes"/>
      <point x="500.0" y="310.447761194"/>
      <point x="545.910447761" y="272.0"/>
      <point x="578" y="272" type="qcurve" smooth="yes"/>
      <point x="606.358208955" y="272.0"/>
      <point x="666.701492537" y="287.089552239"/>
    </contour>
  </outline>
</glyph>
<glyph name="v" format="1">
  <advance width="960.512"/>
  <unicode hex="0076"/>
  <outline>
    <contour>
      <point x="596" y="1110" type="line"/>
      <point x="956" y="1110" type="line"/>
      <point x="709" y="-8" type="line"/>
      <point x="252" y="-8" type="line"/>
      <point x="4" y="1110" type="line"/>
      <point x="387" y="1110" type="line"/>
      <point x="492" y="365" type="line"/>
    </contour>
  </outline>
</glyph>
<glyph name="w" format="1">
  <advance width="1466.368"/>
  <unicode hex="0077"/>
  <outline>
    <contour>
      <point x="1104" y="1110" type="line"/>
      <point x="1460" y="1110" type="line"/>
      <point x="1253" y="-8" type="line"/>
      <point x="829" y="-8" type="line"/>
      <point x="737" y="614" type="line"/>
      <point x="643" y="-8" type="line"/>
      <point x="213" y="-8" type="line"/>
      <point x="6" y="1110" type="line"/>
      <point x="379" y="1110" type="line"/>
      <point x="453" y="446" type="line"/>
      <point x="541" y="1110" type="line"/>
      <point x="942" y="1110" type="line"/>
      <point x="1030" y="446" type="line"/>
    </contour>
  </outline>
</glyph>
<glyph name="x" format="1">
  <advance width="978.944"/>
  <unicode hex="0078"/>
  <outline>
    <contour>
      <point x="711" y="569" type="line"/>
      <point x="979" y="0" type="line"/>
      <point x="573" y="0" type="line"/>
      <point x="465" y="274" type="line"/>
      <point x="350" y="0" type="line"/>
      <point x="0" y="0" type="line"/>
      <point x="268" y="557" type="line"/>
      <point x="8" y="1110" type="line"/>
      <point x="414" y="1110" type="line"/>
      <point x="514" y="852" type="line"/>
      <point x="618" y="1110" type="line"/>
      <point x="971" y="1110" type="line"/>
    </contour>
  </outline>
</glyph>
<glyph name="y" format="1">
  <advance width="980.992"/>
  <unicode hex="0079"/>
  <outline>
    <contour>
      <point x="596" y="1110" type="line"/>
      <point x="956" y="1110" type="line"/>
      <point x="705" y="6" type="line" smooth="yes"/>
      <point x="652.76119403" y="-218.626865672"/>
      <point x="472.402985075" y="-391.0"/>
      <point x="303" y="-391" type="qcurve" smooth="yes"/>
      <point x="215.686567164" y="-391.0"/>
      <point x="103.746268657" y="-366.149253731"/>
      <point x="53" y="-346" type="qcurve"/>
      <point x="53" y="-106" type="line"/>
      <point x="121" y="-106" type="line"/>
      <point x="145.626865672" y="-155.253731343"/>
      <point x="194.71641791" y="-203.0"/>
      <point x="238" y="-203" type="qcurve" smooth="yes"/>
      <point x="273.074626866" y="-203.0"/>
      <point x="310.044776119" y="-173.432835821"/>
      <point x="319" y="-160" type="qcurve" smooth="yes"/>
      <point x="324" y="-154" type="line"/>
      <point x="4" y="1110" type="line"/>
      <point x="387" y="1110" type="line"/>
      <point x="492" y="289" type="line"/>
    </contour>
  </outline>
</glyph>
<glyph name="z" format="1">
  <advance width="808.96"/>
  <unicode hex="007A"/>
  <outline>
    <contour>
      <point x="782" y="258" type="line"/>
      <point x="782" y="0" type="line"/>
      <point x="23" y="0" type="line"/>
      <point x="23" y="227" type="line"/>
      <point x="367" y="848" type="line"/>
      <point x="47" y="848" type="line"/>
      <point x="47" y="1106" type="line"/>
      <point x="782" y="1106" type="line"/>
      <point x="782" y="879" type="line"/>
      <point x="438" y="258" type="line"/>
    </contour>
  </outline>
</glyph>
<glyph name="braceleft" format="1">
  <advance width="802.816"/>
  <unicode hex="007B"/>
  <outline>
    <contour>
      <point x="768" y="-10" type="line"/>
      <point x="768" y="-164" type="line"/>
      <point x="465" y="-164" type="line" smooth="yes"/>
      <point x="336.641791045" y="-164.0"/>
      <point x="201.0" y="-33.3432835821"/>
      <point x="201" y="98" type="qcurve" smooth="yes"/>
      <point x="201.0" y="160.686567164"/>
      <point x="233.0" y="316.343283582"/>
      <point x="233" y="385" type="qcurve" smooth="yes"/>
      <point x="233.0" y="493.208955224"/>
      <point x="107.28358209" y="580.0"/>
      <point x="14" y="580" type="qcurve"/>
      <point x="14" y="731" type="line"/>
      <point x="107.28358209" y="731.0"/>
      <point x="233.0" y="817.044776119"/>
      <point x="233" y="926" type="qcurve" smooth="yes"/>
      <point x="233.0" y="994.656716418"/>
      <point x="201.0" y="1149.31343284"/>
      <point x="201" y="1212" type="qcurve" smooth="yes"/>
      <point x="201.0" y="1344.08955224"/>
      <point x="336.641791045" y="1475.0"/>
      <point x="465" y="1475" type="qcurve" smooth="yes"/>
      <point x="768" y="1475" type="line"/>
      <point x="768" y="1321" type="line"/>
      <point x="635" y="1321" type="line" smooth="yes"/>
      <point x="575.298507463" y="1321.0"/>
      <point x="516.0" y="1256.17910448"/>
      <point x="516" y="1192" type="qcurve" smooth="yes"/>
      <point x="516.0" y="1144.23880597"/>
      <point x="549.0" y="988.880597015"/>
      <point x="549" y="915" type="qcurve" smooth="yes"/>
      <point x="549.0" y="797.835820896"/>
      <point x="443.656716418" y="692.358208955"/>
      <point x="375" y="664" type="qcurve"/>
      <point x="375" y="647" type="line"/>
      <point x="443.656716418" y="617.895522388"/>
      <point x="549.0" y="512.910447761"/>
      <point x="549" y="395" type="qcurve" smooth="yes"/>
      <point x="549.0" y="321.865671642"/>
      <point x="516.0" y="166.014925373"/>
      <point x="516" y="119" type="qcurve" smooth="yes"/>
      <point x="516.0" y="54.8208955224"/>
      <point x="575.298507463" y="-10.0"/>
      <point x="635" y="-10" type="qcurve" smooth="yes"/>
    </contour>
  </outline>
</glyph>
<glyph name="braceright" format="1">
  <advance width="802.816"/>
  <unicode hex="007D"/>
  <outline>
    <contour>
      <point x="788" y="731" type="qcurve"/>
      <point x="788" y="580" type="line"/>
      <point x="695.462686567" y="580.0"/>
      <point x="569.0" y="493.208955224"/>
      <point x="569" y="385" type="qcurve" smooth="yes"/>
      <point x="569.0" y="316.343283582"/>
      <point x="602.0" y="160.686567164"/>
      <point x="602" y="98" type="qcurve" smooth="yes"/>
      <point x="602.0" y="-33.3432835821"/>
      <point x="467.850746269" y="-164.0"/>
      <point x="338" y="-164" type="qcurve" smooth="yes"/>
      <point x="35" y="-164" type="line"/>
      <point x="35" y="-10" type="line"/>
      <point x="168" y="-10" type="line" smooth="yes"/>
      <point x="227.701492537" y="-10.0"/>
      <point x="287.0" y="54.8208955224"/>
      <point x="287" y="119" type="qcurve" smooth="yes"/>
      <point x="287.0" y="166.014925373"/>
      <point x="254.0" y="321.865671642"/>
      <point x="254" y="395" type="qcurve" smooth="yes"/>
      <point x="254.0" y="512.910447761"/>
      <point x="359.850746269" y="617.895522388"/>
      <point x="430" y="647" type="qcurve"/>
      <point x="430" y="664" type="line"/>
      <point x="359.850746269" y="692.358208955"/>
      <point x="254.0" y="797.835820896"/>
      <point x="254" y="915" type="qcurve" smooth="yes"/>
      <point x="254.0" y="988.880597015"/>
      <point x="287.0" y="1144.23880597"/>
      <point x="287" y="1192" type="qcurve" smooth="yes"/>
      <point x="287.0" y="1256.17910448"/>
      <point x="227.701492537" y="1321.0"/>
      <point x="168" y="1321" type="qcurve" smooth="yes"/>
      <point x="35" y="1321" type="line"/>
      <point x="35" y="1475" type="line"/>
      <point x="338" y="1475" type="line" smooth="yes"/>
      <point x="467.850746269" y="1475.0"/>
      <point x="602.0" y="1344.08955224"/>
      <point x="602" y="1212" type="qcurve" smooth="yes"/>
      <point x="602.0" y="1149.31343284"/>
      <point x="569.0" y="994.656716418"/>
      <point x="569" y="926" type="qcurve" smooth="yes"/>
      <point x="569.0" y="817.044776119"/>
      <point x="695.462686567" y="731.0"/>
    </contour>
  </outline>
</glyph>
<glyph name="sterling" format="1">
  <advance width="1050.624"/>
  <unicode hex="00A3"/>
  <outline>
    <contour>
      <point x="817" y="498" type="qcurve"/>
      <point x="1036" y="406" type="line"/>
      <point x="986.0" y="184.358208955"/>
      <point x="809.940298507" y="-10.0"/>
      <point x="698" y="-10" type="qcurve" smooth="yes"/>
      <point x="632.328358209" y="-10.0"/>
      <point x="486.626865672" y="49.5223880597"/>
      <point x="412" y="104" type="qcurve"/>
      <point x="342.597014925" y="52.5074626866"/>
      <point x="153.388059701" y="-9.01492537313"/>
      <point x="31" y="-12" type="qcurve"/>
      <point x="31" y="264" type="line"/>
      <point x="140.701492537" y="271.462686567"/>
      <point x="229.0" y="387.582089552"/>
      <point x="229" y="504" type="qcurve" smooth="yes"/>
      <point x="229.0" y="536.089552239"/>
      <point x="220.970149254" y="607.388059701"/>
      <point x="215" y="635" type="qcurve"/>
      <point x="35" y="635" type="line"/>
      <point x="35" y="829" type="line"/>
      <point x="164" y="829" type="line"/>
      <point x="149.820895522" y="872.28358209"/>
      <point x="119.0" y="1004.37313433"/>
      <point x="119" y="1079" type="qcurve" smooth="yes"/>
      <point x="119.0" y="1284.2238806"/>
      <point x="342.28358209" y="1499.0"/>
      <point x="549" y="1499" type="qcurve" smooth="yes"/>
      <point x="759.447761194" y="1499.0"/>
      <point x="951.791044776" y="1290.62686567"/>
      <point x="1010" y="1116" type="qcurve"/>
      <point x="705" y="981" type="line"/>
      <point x="669.179104478" y="1103.3880597"/>
      <point x="603.567164179" y="1182.0"/>
      <point x="567" y="1182" type="qcurve" smooth="yes"/>
      <point x="527.447761194" y="1182.0"/>
      <point x="483.0" y="1125.17910448"/>
      <point x="483" y="1061" type="qcurve" smooth="yes"/>
      <point x="483.0" y="1008.76119403"/>
      <point x="516.850746269" y="879.746268657"/>
      <point x="537" y="829" type="qcurve"/>
      <point x="827" y="829" type="line"/>
      <point x="827" y="635" type="line"/>
      <point x="584" y="635" type="line"/>
      <point x="586.985074627" y="604.402985075"/>
      <point x="594.0" y="531.582089552"/>
      <point x="594" y="498" type="qcurve" smooth="yes"/>
      <point x="594.0" y="451.731343284"/>
      <point x="579.686567164" y="366.059701493"/>
      <point x="567" y="328" type="qcurve"/>
      <point x="590.134328358" y="316.805970149"/>
      <point x="633.597014925" y="305.0"/>
      <point x="653" y="305" type="qcurve" smooth="yes"/>
      <point x="702.253731343" y="305.0"/>
      <point x="780.432835821" y="393.52238806"/>
    </contour>
  </outline>
</glyph>
<glyph name="section" format="1">
  <advance width="970.752"/>
  <unicode hex="00A7"/>
  <outline>
    <contour>
      <point x="528" y="1096" type="qcurve" smooth="yes"/>
      <point x="734.71641791" y="1049.73134328"/>
      <point x="952.0" y="915.552238806"/>
      <point x="952" y="776" type="qcurve" smooth="yes"/>
      <point x="952.0" y="669.28358209"/>
      <point x="812.731343284" y="544.179104478"/>
      <point x="709" y="530" type="qcurve"/>
      <point x="709" y="526" type="line"/>
      <point x="776.164179104" y="506.597014925"/>
      <point x="897.0" y="391.910447761"/>
      <point x="897" y="274" type="qcurve" smooth="yes"/>
      <point x="897.0" y="138.179104478"/>
      <point x="710.059701493" y="-25.0"/>
      <point x="522" y="-25" type="qcurve" smooth="yes"/>
      <point x="375.731343284" y="-25.0"/>
      <point x="159.582089552" y="49.0149253731"/>
      <point x="76" y="102" type="qcurve"/>
      <point x="195" y="350" type="line"/>
      <point x="274.104477612" y="302.985074627"/>
      <point x="456.805970149" y="244.0"/>
      <point x="518" y="244" type="qcurve" smooth="yes"/>
      <point x="551.582089552" y="244.0"/>
      <point x="592.0" y="265.865671642"/>
      <point x="592" y="289" type="qcurve" smooth="yes"/>
      <point x="592.0" y="318.104477612"/>
      <point x="532.298507463" y="358.850746269"/>
      <point x="442" y="379" type="qcurve" smooth="yes"/>
      <point x="236.029850746" y="424.52238806"/>
      <point x="18.0" y="559.194029851"/>
      <point x="18" y="698" type="qcurve" smooth="yes"/>
      <point x="18.0" y="805.462686567"/>
      <point x="158.268656716" y="930.567164179"/>
      <point x="262" y="944" type="qcurve"/>
      <point x="262" y="948" type="line"/>
      <point x="194.835820896" y="968.149253731"/>
      <point x="74.0" y="1082.08955224"/>
      <point x="74" y="1200" type="qcurve" smooth="yes"/>
      <point x="74.0" y="1335.82089552"/>
      <point x="260.940298507" y="1499.0"/>
      <point x="449" y="1499" type="qcurve" smooth="yes"/>
      <point x="595.268656716" y="1499.0"/>
      <point x="810.671641791" y="1425.73134328"/>
      <point x="895" y="1372" type="qcurve"/>
      <point x="776" y="1124" type="line"/>
      <point x="696.895522388" y="1171.76119403"/>
      <point x="514.194029851" y="1231.0"/>
      <point x="453" y="1231" type="qcurve" smooth="yes"/>
      <point x="419.417910448" y="1231.0"/>
      <point x="379.0" y="1209.13432836"/>
      <point x="379" y="1186" type="qcurve" smooth="yes"/>
      <point x="379.0" y="1156.89552239"/>
      <point x="438.447761194" y="1115.40298507"/>
    </contour>
    <contour>
      <point x="575" y="649" type="qcurve" smooth="yes"/>
      <point x="605.597014925" y="649.0"/>
      <point x="659.0" y="675.895522388"/>
      <point x="659" y="705" type="qcurve" smooth="yes"/>
      <point x="659.0" y="725.895522388"/>
      <point x="614.253731343" y="776.343283582"/>
      <point x="565" y="795" type="qcurve" smooth="yes"/>
      <point x="534.402985075" y="806.940298507"/>
      <point x="442.76119403" y="825.0"/>
      <point x="395" y="825" type="qcurve" smooth="yes"/>
      <point x="364.402985075" y="825.0"/>
      <point x="311.0" y="799.104477612"/>
      <point x="311" y="770" type="qcurve" smooth="yes"/>
      <point x="311.0" y="748.358208955"/>
      <point x="356.746268657" y="698.656716418"/>
      <point x="406" y="680" type="qcurve" smooth="yes"/>
      <point x="435.850746269" y="668.059701493"/>
      <point x="527.985074627" y="649.0"/>
    </contour>
  </outline>
</glyph>
<glyph name="dieresis" format="1">
  <advance width="819.2"/>
  <unicode hex="00A8"/>
  <outline>
    <contour>
      <point x="365" y="1475" type="line"/>
      <point x="365" y="1192" type="line"/>
      <point x="98" y="1192" type="line"/>
      <point x="98" y="1475" type="line"/>
    </contour>
    <contour>
      <point x="721" y="1475" type="line"/>
      <point x="721" y="1192" type="line"/>
      <point x="455" y="1192" type="line"/>
      <point x="455" y="1475" type="line"/>
    </contour>
  </outline>
</glyph>
<glyph name="copyright" format="1">
  <advance width="1335.296"/>
  <unicode hex="00A9"/>
  <outline>
    <contour>
      <point x="719" y="649" type="qcurve"/>
      <point x="940" y="600" type="line"/>
      <point x="925.074626866" y="439.552238806"/>
      <point x="790.582089552" y="289.0"/>
      <point x="657" y="289" type="qcurve" smooth="yes"/>
      <point x="535.358208955" y="289.0"/>
      <point x="373.0" y="469.223880597"/>
      <point x="373" y="664" type="qcurve" smooth="yes"/>
      <point x="373" y="829" type="line" smooth="yes"/>
      <point x="373.0" y="1025.26865672"/>
      <point x="535.134328358" y="1204.0"/>
      <point x="662" y="1204" type="qcurve" smooth="yes"/>
      <point x="803.791044776" y="1204.0"/>
      <point x="926.059701493" y="1033.29850746"/>
      <point x="938" y="893" type="qcurve"/>
      <point x="713" y="842" type="line"/>
      <point x="711.507462687" y="947.223880597"/>
      <point x="688.865671642" y="1024.0"/>
      <point x="662" y="1024" type="qcurve" smooth="yes"/>
      <point x="631.402985075" y="1024.0"/>
      <point x="612.0" y="938.358208955"/>
      <point x="612" y="860" type="qcurve" smooth="yes"/>
      <point x="612" y="633" type="line" smooth="yes"/>
      <point x="612.0" y="547.179104478"/>
      <point x="636.388059701" y="471.0"/>
      <point x="664" y="471" type="qcurve" smooth="yes"/>
      <point x="689.373134328" y="471.0"/>
      <point x="714.52238806" y="543.776119403"/>
    </contour>
    <contour>
      <point x="670" y="1499" type="qcurve" smooth="yes"/>
      <point x="935.671641791" y="1499.0"/>
      <point x="1288.0" y="1063.62686567"/>
      <point x="1288" y="739" type="qcurve" smooth="yes"/>
      <point x="1288.0" y="415.119402985"/>
      <point x="933.164179104" y="-25.0"/>
      <point x="666" y="-25" type="qcurve" smooth="yes"/>
      <point x="399.582089552" y="-25.0"/>
      <point x="47.0" y="408.134328358"/>
      <point x="47" y="735" type="qcurve" smooth="yes"/>
      <point x="47.0" y="1062.6119403"/>
      <point x="402.089552239" y="1499.0"/>
    </contour>
    <contour>
      <point x="670" y="53" type="qcurve" smooth="yes"/>
      <point x="912.537313433" y="53.0"/>
      <point x="1206.0" y="450.671641791"/>
      <point x="1206" y="735" type="qcurve" smooth="yes"/>
      <point x="1206.0" y="1019.32835821"/>
      <point x="910.029850746" y="1421.0"/>
      <point x="666" y="1421" type="qcurve" smooth="yes"/>
      <point x="422.71641791" y="1421.0"/>
      <point x="129.0" y="1023.32835821"/>
      <point x="129" y="739" type="qcurve" smooth="yes"/>
      <point x="129.0" y="454.671641791"/>
      <point x="425.223880597" y="53.0"/>
    </contour>
  </outline>
</glyph>
<glyph name="uni00AE" format="1">
  <advance width="1335.296"/>
  <unicode hex="00AE"/>
  <outline>
    <contour>
      <point x="860" y="698" type="qcurve"/>
      <point x="987" y="313" type="line"/>
      <point x="748" y="313" type="line"/>
      <point x="655" y="633" type="line"/>
      <point x="639" y="633" type="line"/>
      <point x="639" y="313" type="line"/>
      <point x="406" y="313" type="line"/>
      <point x="406" y="1198" type="line"/>
      <point x="668" y="1198" type="line" smooth="yes"/>
      <point x="797.850746269" y="1198.0"/>
      <point x="961.0" y="1066.80597015"/>
      <point x="961" y="928" type="qcurve" smooth="yes"/>
      <point x="961.0" y="849.641791045"/>
      <point x="907.76119403" y="735.313432836"/>
    </contour>
    <contour>
      <point x="670" y="1499" type="qcurve" smooth="yes"/>
      <point x="935.671641791" y="1499.0"/>
      <point x="1288.0" y="1063.62686567"/>
      <point x="1288" y="739" type="qcurve" smooth="yes"/>
      <point x="1288.0" y="415.119402985"/>
      <point x="933.164179104" y="-25.0"/>
      <point x="666" y="-25" type="qcurve" smooth="yes"/>
      <point x="399.582089552" y="-25.0"/>
      <point x="47.0" y="408.134328358"/>
      <point x="47" y="735" type="qcurve" smooth="yes"/>
      <point x="47.0" y="1062.6119403"/>
      <point x="402.089552239" y="1499.0"/>
    </contour>
    <contour>
      <point x="670" y="53" type="qcurve" smooth="yes"/>
      <point x="912.537313433" y="53.0"/>
      <point x="1206.0" y="450.671641791"/>
      <point x="1206" y="735" type="qcurve" smooth="yes"/>
      <point x="1206.0" y="1019.32835821"/>
      <point x="910.029850746" y="1421.0"/>
      <point x="666" y="1421" type="qcurve" smooth="yes"/>
      <point x="422.71641791" y="1421.0"/>
      <point x="129.0" y="1023.32835821"/>
      <point x="129" y="739" type="qcurve" smooth="yes"/>
      <point x="129.0" y="454.671641791"/>
      <point x="425.223880597" y="53.0"/>
    </contour>
    <contour>
      <point x="651" y="795" type="line" smooth="yes"/>
      <point x="692.791044776" y="795.0"/>
      <point x="731.0" y="860.014925373"/>
      <point x="731" y="913" type="qcurve" smooth="yes"/>
      <point x="731.0" y="966.731343284"/>
      <point x="691.298507463" y="1024.0"/>
      <point x="651" y="1024" type="qcurve" smooth="yes"/>
      <point x="639" y="1024" type="line"/>
      <point x="639" y="795" type="line"/>
    </contour>
  </outline>
</glyph>
<glyph name="degree" format="1">
  <advance width="737.28"/>
  <unicode hex="00B0"/>
  <outline>
    <contour>
      <point x="379" y="1483" type="qcurve" smooth="yes"/>
      <point x="510.343283582" y="1483.0"/>
      <point x="684.0" y="1311.85074627"/>
      <point x="684" y="1182" type="qcurve" smooth="yes"/>
      <point x="684.0" y="1052.14925373"/>
      <point x="510.343283582" y="881.0"/>
      <point x="379" y="881" type="qcurve" smooth="yes"/>
      <point x="249.149253731" y="881.0"/>
      <point x="76.0" y="1052.14925373"/>
      <point x="76" y="1182" type="qcurve" smooth="yes"/>
      <point x="76.0" y="1311.85074627"/>
      <point x="249.149253731" y="1483.0"/>
    </contour>
    <contour>
      <point x="379" y="1028" type="qcurve" smooth="yes"/>
      <point x="443.179104478" y="1028.0"/>
      <point x="516.0" y="1117.82089552"/>
      <point x="516" y="1182" type="qcurve" smooth="yes"/>
      <point x="516.0" y="1246.17910448"/>
      <point x="443.179104478" y="1335.0"/>
      <point x="379" y="1335" type="qcurve" smooth="yes"/>
      <point x="316.313432836" y="1335.0"/>
      <point x="244.0" y="1246.17910448"/>
      <point x="244" y="1182" type="qcurve" smooth="yes"/>
      <point x="244.0" y="1117.82089552"/>
      <point x="316.313432836" y="1028.0"/>
    </contour>
  </outline>
</glyph>
<glyph name="acute" format="1">
  <advance width="819.2"/>
  <unicode hex="00B4"/>
  <outline>
    <contour>
      <point x="301" y="1475" type="line"/>
      <point x="698" y="1475" type="line"/>
      <point x="436" y="1192" type="line"/>
      <point x="184" y="1192" type="line"/>
    </contour>
  </outline>
</glyph>
<glyph name="cedilla" format="1">
  <advance width="819.2"/>
  <unicode hex="00B8"/>
  <outline>
    <contour>
      <point x="481" y="-78" type="qcurve" smooth="yes"/>
      <point x="549.656716418" y="-78.0"/>
      <point x="639.0" y="-135.298507463"/>
      <point x="639" y="-195" type="qcurve" smooth="yes"/>
      <point x="639.0" y="-298.731343284"/>
      <point x="419.388059701" y="-396.970149254"/>
      <point x="147" y="-391" type="qcurve"/>
      <point x="147" y="-319" type="line"/>
      <point x="323.119402985" y="-319.0"/>
      <point x="455.0" y="-279.582089552"/>
      <point x="455" y="-246" type="qcurve" smooth="yes"/>
      <point x="455.0" y="-227.343283582"/>
      <point x="426.611940299" y="-209.0"/>
      <point x="399" y="-209" type="qcurve" smooth="yes"/>
      <point x="378.104477612" y="-209.0"/>
      <point x="330.134328358" y="-220.044776119"/>
      <point x="307" y="-229" type="qcurve"/>
      <point x="242" y="-180" type="line"/>
      <point x="365" y="0" type="line"/>
      <point x="457" y="0" type="line"/>
      <point x="399" y="-84" type="line"/>
      <point x="411.686567164" y="-82.5074626866"/>
      <point x="458.611940299" y="-78.0"/>
    </contour>
  </outline>
</glyph>
<glyph name="ordmasculine" format="1">
  <advance width="649.216"/>
  <unicode hex="00BA"/>
  <outline>
    <contour>
      <point x="627" y="1135" type="qcurve" smooth="yes"/>
      <point x="627" y="1055" type="line" smooth="yes"/>
      <point x="627.0" y="887.835820896"/>
      <point x="467.28358209" y="702.0"/>
      <point x="324" y="702" type="qcurve" smooth="yes"/>
      <point x="181.462686567" y="702.0"/>
      <point x="23.0" y="887.835820896"/>
      <point x="23" y="1055" type="qcurve" smooth="yes"/>
      <point x="23" y="1135" type="line" smooth="yes"/>
      <point x="23.0" y="1301.41791045"/>
      <point x="181.462686567" y="1485.0"/>
      <point x="324" y="1485" type="qcurve" smooth="yes"/>
      <point x="467.28358209" y="1485.0"/>
      <point x="627.0" y="1301.41791045"/>
    </contour>
    <contour>
      <point x="324" y="870" type="qcurve" smooth="yes"/>
      <point x="352.358208955" y="870.0"/>
      <point x="373.0" y="939.731343284"/>
      <point x="373" y="1036" type="qcurve" smooth="yes"/>
      <point x="373" y="1153" type="line" smooth="yes"/>
      <point x="373.0" y="1247.7761194"/>
      <point x="352.358208955" y="1319.0"/>
      <point x="324" y="1319" type="qcurve" smooth="yes"/>
      <point x="296.388059701" y="1319.0"/>
      <point x="276.0" y="1247.7761194"/>
      <point x="276" y="1153" type="qcurve" smooth="yes"/>
      <point x="276" y="1036" type="line" smooth="yes"/>
      <point x="276.0" y="939.731343284"/>
      <point x="296.388059701" y="870.0"/>
    </contour>
    <contour>
      <point x="612" y="641" type="line"/>
      <point x="612" y="487" type="line"/>
      <point x="35" y="487" type="line"/>
      <point x="35" y="641" type="line"/>
    </contour>
  </outline>
</glyph>
<glyph name="guillemotright" format="1">
  <advance width="921.6"/>
  <unicode hex="00BB"/>
  <outline>
    <contour>
      <point x="225" y="977" type="line"/>
      <point x="502" y="555" type="line"/>
      <point x="225" y="133" type="line"/>
      <point x="41" y="133" type="line"/>
      <point x="154" y="555" type="line"/>
      <point x="41" y="977" type="line"/>
    </contour>
    <contour>
      <point x="629" y="977" type="line"/>
      <point x="905" y="555" type="line"/>
      <point x="629" y="133" type="line"/>
      <point x="446" y="133" type="line"/>
      <point x="557" y="555" type="line"/>
      <point x="446" y="977" type="line"/>
    </contour>
  </outline>
</glyph>
<glyph name="questiondown" format="1">
  <advance width="933.888"/>
  <unicode hex="00BF"/>
  <outline>
    <contour>
      <point x="610" y="516" type="qcurve"/>
      <point x="928" y="416" type="line"/>
      <point x="891.432835821" y="201.820895522"/>
      <point x="673.656716418" y="-25.0"/>
      <point x="455" y="-25" type="qcurve" smooth="yes"/>
      <point x="240.820895522" y="-25.0"/>
      <point x="27.0" y="198.432835821"/>
      <point x="27" y="385" type="qcurve" smooth="yes"/>
      <point x="27.0" y="542.462686567"/>
      <point x="147.253731343" y="722.134328358"/>
      <point x="248" y="799" type="qcurve" smooth="yes"/>
      <point x="322.626865672" y="854.970149254"/>
      <point x="390.552238806" y="942.52238806"/>
      <point x="401" y="997" type="qcurve"/>
      <point x="616" y="997" type="line"/>
      <point x="653.313432836" y="862.671641791"/>
      <point x="599.223880597" y="690.23880597"/>
      <point x="494" y="588" type="qcurve" smooth="yes"/>
      <point x="443.253731343" y="538.746268657"/>
      <point x="395.0" y="450.701492537"/>
      <point x="395" y="391" type="qcurve" smooth="yes"/>
      <point x="395.0" y="328.313432836"/>
      <point x="433.925373134" y="268.0"/>
      <point x="469" y="268" type="qcurve" smooth="yes"/>
      <point x="514.52238806" y="268.0"/>
      <point x="576.417910448" y="364.507462687"/>
    </contour>
    <contour>
      <point x="502" y="1489" type="qcurve" smooth="yes"/>
      <point x="584.089552239" y="1489.0"/>
      <point x="696.0" y="1376.8358209"/>
      <point x="696" y="1294" type="qcurve" smooth="yes"/>
      <point x="696.0" y="1211.91044776"/>
      <point x="584.089552239" y="1100.0"/>
      <point x="502" y="1100" type="qcurve" smooth="yes"/>
      <point x="419.164179104" y="1100.0"/>
      <point x="307.0" y="1211.91044776"/>
      <point x="307" y="1294" type="qcurve" smooth="yes"/>
      <point x="307.0" y="1376.8358209"/>
      <point x="419.164179104" y="1489.0"/>
    </contour>
  </outline>
</glyph>
<glyph name="AE" format="1">
  <advance width="1622.016"/>
  <unicode hex="00C6"/>
  <outline>
    <contour>
      <point x="1589" y="319" type="line"/>
      <point x="1589" y="0" type="line"/>
      <point x="782" y="0" type="line"/>
      <point x="782" y="295" type="line"/>
      <point x="496" y="295" type="line"/>
      <point x="406" y="0" type="line"/>
      <point x="8" y="0" type="line"/>
      <point x="512" y="1475" type="line"/>
      <point x="1573" y="1475" type="line"/>
      <point x="1573" y="1155" type="line"/>
      <point x="1174" y="1155" type="line"/>
      <point x="1174" y="909" type="line"/>
      <point x="1442" y="909" type="line"/>
      <point x="1442" y="606" type="line"/>
      <point x="1174" y="606" type="line"/>
      <point x="1174" y="319" type="line"/>
    </contour>
    <contour>
      <point x="580" y="573" type="line"/>
      <point x="782" y="573" type="line"/>
      <point x="782" y="1157" type="line"/>
      <point x="758" y="1157" type="line"/>
    </contour>
  </outline>
</glyph>
<glyph name="Ccedilla" format="1">
  <advance width="1009.664"/>
  <unicode hex="00C7"/>
  <outline>
    <contour>
      <point x="621" y="573" type="qcurve"/>
      <point x="987" y="494" type="line"/>
      <point x="963.865671642" y="237.28358209"/>
      <point x="755.985074627" y="-15.2985074627"/>
      <point x="553" y="-25" type="qcurve"/>
      <point x="512" y="-84" type="line"/>
      <point x="523.940298507" y="-82.5074626866"/>
      <point x="570.865671642" y="-78.0"/>
      <point x="594" y="-78" type="qcurve" smooth="yes"/>
      <point x="662.656716418" y="-78.0"/>
      <point x="752.0" y="-135.298507463"/>
      <point x="752" y="-195" type="qcurve" smooth="yes"/>
      <point x="752.0" y="-298.731343284"/>
      <point x="532.388059701" y="-396.970149254"/>
      <point x="260" y="-391" type="qcurve"/>
      <point x="260" y="-319" type="line"/>
      <point x="436.119402985" y="-319.0"/>
      <point x="567.0" y="-279.582089552"/>
      <point x="567" y="-246" type="qcurve" smooth="yes"/>
      <point x="567.0" y="-227.343283582"/>
      <point x="539.611940299" y="-209.0"/>
      <point x="512" y="-209" type="qcurve" smooth="yes"/>
      <point x="490.358208955" y="-209.0"/>
      <point x="443.134328358" y="-220.044776119"/>
      <point x="420" y="-229" type="qcurve"/>
      <point x="354" y="-180" type="line"/>
      <point x="463" y="-23" type="line"/>
      <point x="279.417910448" y="-4.34328358209"/>
      <point x="41.0" y="297.76119403"/>
      <point x="41" y="600" type="qcurve" smooth="yes"/>
      <point x="41" y="874" type="line" smooth="yes"/>
      <point x="41.0" y="1200.11940299"/>
      <point x="313.552238806" y="1499.0"/>
      <point x="524" y="1499" type="qcurve" smooth="yes"/>
      <point x="759.820895522" y="1499.0"/>
      <point x="964.343283582" y="1216.07462687"/>
      <point x="983" y="981" type="qcurve"/>
      <point x="608" y="897" type="line"/>
      <point x="605.014925373" y="1073.11940299"/>
      <point x="570.268656716" y="1198.0"/>
      <point x="524" y="1198" type="qcurve" smooth="yes"/>
      <point x="472.507462687" y="1198.0"/>
      <point x="442.0" y="1057.85074627"/>
      <point x="442" y="928" type="qcurve" smooth="yes"/>
      <point x="442" y="549" type="line" smooth="yes"/>
      <point x="442.0" y="404.970149254"/>
      <point x="481.970149254" y="276.0"/>
      <point x="526" y="276" type="qcurve" smooth="yes"/>
      <point x="569.28358209" y="276.0"/>
      <point x="611.298507463" y="397.626865672"/>
    </contour>
  </outline>
</glyph>
<glyph name="Thorn" format="1">
  <advance width="976.896"/>
  <unicode hex="00DE"/>
  <outline>
    <contour>
      <point x="457" y="1245" type="line" smooth="yes"/>
      <point x="692.074626866" y="1245.0"/>
      <point x="967.0" y="1014.80597015"/>
      <point x="967" y="776" type="qcurve" smooth="yes"/>
      <point x="967.0" y="523.76119403"/>
      <point x="694.582089552" y="272.0"/>
      <point x="461" y="272" type="qcurve" smooth="yes"/>
      <point x="451" y="272" type="line"/>
      <point x="451" y="0" type="line"/>
      <point x="55" y="0" type="line"/>
      <point x="55" y="1475" type="line"/>
      <point x="451" y="1475" type="line"/>
      <point x="451" y="1245" type="line"/>
    </contour>
    <contour>
      <point x="455" y="569" type="line" smooth="yes"/>
      <point x="525.149253731" y="569.0"/>
      <point x="588.0" y="676.208955224"/>
      <point x="588" y="768" type="qcurve" smooth="yes"/>
      <point x="588.0" y="859.791044776"/>
      <point x="522.164179104" y="954.0"/>
      <point x="455" y="954" type="qcurve" smooth="yes"/>
      <point x="446" y="954" type="line"/>
      <point x="446" y="569" type="line"/>
    </contour>
  </outline>
</glyph>
<glyph name="germandbls" format="1">
  <advance width="1099.776"/>
  <unicode hex="00DF"/>
  <outline>
    <contour>
      <point x="821" y="842" type="line"/>
      <point x="932.940298507" y="782.298507463"/>
      <point x="1073.0" y="572.447761194"/>
      <point x="1073" y="412" type="qcurve" smooth="yes"/>
      <point x="1073.0" y="194.835820896"/>
      <point x="879.611940299" y="-16.0"/>
      <point x="702" y="-16" type="qcurve" smooth="yes"/>
      <point x="639.313432836" y="-16.0"/>
      <point x="563.582089552" y="-6.9552238806"/>
      <point x="530" y="2" type="qcurve"/>
      <point x="549" y="272" type="line"/>
      <point x="562.432835821" y="267.52238806"/>
      <point x="590.059701493" y="264.0"/>
      <point x="602" y="264" type="qcurve" smooth="yes"/>
      <point x="646.776119403" y="264.0"/>
      <point x="698.0" y="334.179104478"/>
      <point x="698" y="420" type="qcurve" smooth="yes"/>
      <point x="698.0" y="526.71641791"/>
      <point x="624.074626866" y="669.71641791"/>
      <point x="539" y="713" type="qcurve"/>
      <point x="539" y="961" type="line"/>
      <point x="581.537313433" y="972.940298507"/>
      <point x="623.0" y="1071.86567164"/>
      <point x="623" y="1145" type="qcurve" smooth="yes"/>
      <point x="623.0" y="1215.14925373"/>
      <point x="588.014925373" y="1294.0"/>
      <point x="541" y="1294" type="qcurve" smooth="yes"/>
      <point x="481.298507463" y="1294.0"/>
      <point x="455.0" y="1189.28358209"/>
      <point x="455" y="1096" type="qcurve" smooth="yes"/>
      <point x="455" y="0" type="line"/>
      <point x="53" y="0" type="line"/>
      <point x="53" y="1049" type="line" smooth="yes"/>
      <point x="53.0" y="1310.19402985"/>
      <point x="335.776119403" y="1554.0"/>
      <point x="541" y="1554" type="qcurve" smooth="yes"/>
      <point x="749.955223881" y="1554.0"/>
      <point x="991.0" y="1347.88059701"/>
      <point x="991" y="1174" type="qcurve" smooth="yes"/>
      <point x="991.0" y="1019.52238806"/>
      <point x="865.776119403" y="877.134328358"/>
      <point x="821" y="854" type="qcurve"/>
    </contour>
  </outline>
</glyph>
<glyph name="ae" format="1">
  <advance width="1419.264"/>
  <unicode hex="00E6"/>
  <outline>
    <contour>
      <point x="977" y="-14" type="qcurve" smooth="yes"/>
      <point x="853.119402985" y="-14.0"/>
      <point x="664.268656716" y="69.8358208955"/>
      <point x="618" y="137" type="qcurve"/>
      <point x="606" y="137" type="line"/>
      <point x="550.776119403" y="71.328358209"/>
      <point x="371.537313433" y="-10.0"/>
      <point x="279" y="-10" type="qcurve" smooth="yes"/>
      <point x="173.029850746" y="-10.0"/>
      <point x="12.0" y="128.552238806"/>
      <point x="12" y="289" type="qcurve" smooth="yes"/>
      <point x="12.0" y="449.447761194"/>
      <point x="247.253731343" y="638.388059701"/>
      <point x="498" y="666" type="qcurve"/>
      <point x="498" y="748" type="line" smooth="yes"/>
      <point x="498.0" y="795.014925373"/>
      <point x="449.268656716" y="852.0"/>
      <point x="403" y="852" type="qcurve" smooth="yes"/>
      <point x="357.47761194" y="852.0"/>
      <point x="233.805970149" y="816.23880597"/>
      <point x="145" y="764" type="qcurve"/>
      <point x="49" y="989" type="line"/>
      <point x="156.462686567" y="1051.68656716"/>
      <point x="388.597014925" y="1122.0"/>
      <point x="508" y="1122" type="qcurve" smooth="yes"/>
      <point x="611.731343284" y="1122.0"/>
      <point x="704.791044776" y="1043.07462687"/>
      <point x="713" y="1008" type="qcurve"/>
      <point x="725" y="1008" type="line"/>
      <point x="752.611940299" y="1056.50746269"/>
      <point x="890.134328358" y="1130.0"/>
      <point x="967" y="1130" type="qcurve" smooth="yes"/>
      <point x="1167.0" y="1130.0"/>
      <point x="1384.0" y="844.71641791"/>
      <point x="1384" y="588" type="qcurve" smooth="yes"/>
      <point x="1384" y="455" type="line"/>
      <point x="868" y="455" type="line"/>
      <point x="866.507462687" y="346.044776119"/>
      <point x="966.194029851" y="264.0"/>
      <point x="1055" y="264" type="qcurve" smooth="yes"/>
      <point x="1107.98507463" y="264.0"/>
      <point x="1255.86567164" y="307.432835821"/>
      <point x="1329" y="344" type="qcurve"/>
      <point x="1401" y="88" type="line"/>
      <point x="1304.73134328" y="39.4925373134"/>
      <point x="1099.3880597" y="-14.0"/>
    </contour>
    <contour>
      <point x="457" y="223" type="qcurve" smooth="yes"/>
      <point x="486.104477612" y="223.0"/>
      <point x="540.044776119" y="245.552238806"/>
      <point x="549" y="256" type="qcurve"/>
      <point x="534.820895522" y="291.074626866"/>
      <point x="512.0" y="423.671641791"/>
      <point x="512" y="508" type="qcurve" smooth="yes"/>
      <point x="512" y="526" type="line"/>
      <point x="424.686567164" y="503.611940299"/>
      <point x="367.0" y="407.671641791"/>
      <point x="367" y="342" type="qcurve" smooth="yes"/>
      <point x="367.0" y="273.343283582"/>
      <point x="423.417910448" y="223.0"/>
    </contour>
    <contour>
      <point x="1040" y="608" type="line"/>
      <point x="1040.0" y="791.582089552"/>
      <point x="997.28358209" y="895.0"/>
      <point x="954" y="895" type="qcurve" smooth="yes"/>
      <point x="912.955223881" y="895.0"/>
      <point x="868.0" y="788.597014925"/>
      <point x="868" y="608" type="qcurve"/>
    </contour>
  </outline>
</glyph>
<glyph name="oslash" format="1">
  <advance width="954.368"/>
  <unicode hex="00F8"/>
  <outline>
    <contour>
      <point x="719" y="1305" type="line"/>
      <point x="903" y="1305" type="line"/>
      <point x="772" y="1030" type="line"/>
      <point x="843.641791045" y="964.328358209"/>
      <point x="922.0" y="753.552238806"/>
      <point x="922" y="614" type="qcurve" smooth="yes"/>
      <point x="922" y="496" type="line" smooth="yes"/>
      <point x="922.0" y="251.223880597"/>
      <point x="686.701492537" y="-20.0"/>
      <point x="477" y="-20" type="qcurve" smooth="yes"/>
      <point x="434.462686567" y="-20.0"/>
      <point x="354.820895522" y="-8.44776119403"/>
      <point x="319" y="2" type="qcurve"/>
      <point x="242" y="-195" type="line"/>
      <point x="57" y="-195" type="line"/>
      <point x="186" y="78" type="line"/>
      <point x="111.373134328" y="143.671641791"/>
      <point x="33.0" y="354.955223881"/>
      <point x="33" y="496" type="qcurve" smooth="yes"/>
      <point x="33" y="614" type="line" smooth="yes"/>
      <point x="33.0" y="858.776119403"/>
      <point x="268.044776119" y="1130.0"/>
      <point x="477" y="1130" type="qcurve" smooth="yes"/>
      <point x="521.776119403" y="1130.0"/>
      <point x="604.432835821" y="1117.94029851"/>
      <point x="641" y="1106" type="qcurve"/>
    </contour>
    <contour>
      <point x="477" y="217" type="qcurve" smooth="yes"/>
      <point x="520.28358209" y="217.0"/>
      <point x="549.0" y="322.970149254"/>
      <point x="549" y="467" type="qcurve" smooth="yes"/>
      <point x="549" y="582" type="line"/>
      <point x="422" y="262" type="line"/>
      <point x="429.462686567" y="237.373134328"/>
      <point x="457.597014925" y="217.0"/>
    </contour>
    <contour>
      <point x="406" y="512" type="line"/>
      <point x="535" y="838" type="line"/>
      <point x="526.791044776" y="868.597014925"/>
      <point x="498.641791045" y="893.0"/>
      <point x="477" y="893" type="qcurve" smooth="yes"/>
      <point x="434.462686567" y="893.0"/>
      <point x="406.0" y="787.029850746"/>
      <point x="406" y="643" type="qcurve" smooth="yes"/>
    </contour>
  </outline>
</glyph>
<glyph name="dotlessi" format="1">
  <advance width="487.424"/>
  <unicode hex="0131"/>
  <outline>
    <contour>
      <point x="434" y="1110" type="line"/>
      <point x="434" y="0" type="line"/>
      <point x="53" y="0" type="line"/>
      <point x="53" y="1110" type="line"/>
    </contour>
  </outline>
</glyph>
<glyph name="Lslash" format="1">
  <advance width="901.12"/>
  <unicode hex="0141"/>
  <outline>
    <contour>
      <point x="874" y="328" type="line"/>
      <point x="874" y="0" type="line"/>
      <point x="109" y="0" type="line"/>
      <point x="109" y="518" type="line"/>
      <point x="35" y="483" type="line"/>
      <point x="35" y="823" type="line"/>
      <point x="109" y="858" type="line"/>
      <point x="109" y="1475" type="line"/>
      <point x="510" y="1475" type="line"/>
      <point x="510" y="1055" type="line"/>
      <point x="692" y="1143" type="line"/>
      <point x="692" y="803" type="line"/>
      <point x="510" y="715" type="line"/>
      <point x="510" y="328" type="line"/>
    </contour>
  </outline>
</glyph>
<glyph name="OE" format="1">
  <advance width="1449.984"/>
  <unicode hex="0152"/>
  <outline>
    <contour>
      <point x="1417" y="319" type="line"/>
      <point x="1417" y="0" type="line"/>
      <point x="530" y="0" type="line" smooth="yes"/>
      <point x="324.029850746" y="0.0"/>
      <point x="41.0" y="289.641791045"/>
      <point x="41" y="618" type="qcurve" smooth="yes"/>
      <point x="41" y="856" type="line" smooth="yes"/>
      <point x="41.0" y="1187.34328358"/>
      <point x="327.014925373" y="1475.0"/>
      <point x="530" y="1475" type="qcurve" smooth="yes"/>
      <point x="1401" y="1475" type="line"/>
      <point x="1401" y="1155" type="line"/>
      <point x="1001" y="1155" type="line"/>
      <point x="1001" y="909" type="line"/>
      <point x="1270" y="909" type="line"/>
      <point x="1270" y="606" type="line"/>
      <point x="1001" y="606" type="line"/>
      <point x="1001" y="319" type="line"/>
    </contour>
    <contour>
      <point x="561" y="281" type="qcurve" smooth="yes"/>
      <point x="610" y="281" type="line"/>
      <point x="610" y="1192" type="line"/>
      <point x="561" y="1192" type="line" smooth="yes"/>
      <point x="495.328358209" y="1192.0"/>
      <point x="430.0" y="1067.94029851"/>
      <point x="430" y="956" type="qcurve" smooth="yes"/>
      <point x="430" y="518" type="line" smooth="yes"/>
      <point x="430.0" y="405.313432836"/>
      <point x="495.328358209" y="281.0"/>
    </contour>
  </outline>
</glyph>
<glyph name="oe" format="1">
  <advance width="1462.272"/>
  <unicode hex="0153"/>
  <outline>
    <contour>
      <point x="739" y="123" type="line"/>
      <point x="706.910447761" y="61.8059701493"/>
      <point x="566.253731343" y="-20.0"/>
      <point x="467" y="-20" type="qcurve" smooth="yes"/>
      <point x="268.492537313" y="-20.0"/>
      <point x="33.0" y="251.223880597"/>
      <point x="33" y="496" type="qcurve" smooth="yes"/>
      <point x="33" y="614" type="line" smooth="yes"/>
      <point x="33.0" y="858.776119403"/>
      <point x="268.492537313" y="1130.0"/>
      <point x="467" y="1130" type="qcurve" smooth="yes"/>
      <point x="552.820895522" y="1130.0"/>
      <point x="713.597014925" y="1049.20895522"/>
      <point x="733" y="991" type="qcurve"/>
      <point x="741" y="991" type="line"/>
      <point x="767.119402985" y="1053.68656716"/>
      <point x="929.164179104" y="1130.0"/>
      <point x="1012" y="1130" type="qcurve" smooth="yes"/>
      <point x="1207.52238806" y="1130.0"/>
      <point x="1427.0" y="844.71641791"/>
      <point x="1427" y="588" type="qcurve" smooth="yes"/>
      <point x="1427" y="455" type="line"/>
      <point x="911" y="455" type="line"/>
      <point x="916.223880597" y="340.074626866"/>
      <point x="1009.19402985" y="264.0"/>
      <point x="1098" y="264" type="qcurve" smooth="yes"/>
      <point x="1150.98507463" y="264.0"/>
      <point x="1298.86567164" y="307.432835821"/>
      <point x="1372" y="344" type="qcurve"/>
      <point x="1444" y="88" type="line"/>
      <point x="1347.73134328" y="39.4925373134"/>
      <point x="1139.46268657" y="-14.0"/>
      <point x="1032" y="-14" type="qcurve" smooth="yes"/>
      <point x="935.731343284" y="-14.0"/>
      <point x="783.582089552" y="60.3134328358"/>
      <point x="750" y="123" type="qcurve"/>
    </contour>
    <contour>
      <point x="477" y="225" type="qcurve" smooth="yes"/>
      <point x="518.044776119" y="225.0"/>
      <point x="547.0" y="328.701492537"/>
      <point x="547" y="469" type="qcurve" smooth="yes"/>
      <point x="547" y="641" type="line" smooth="yes"/>
      <point x="547.0" y="781.298507463"/>
      <point x="518.044776119" y="885.0"/>
      <point x="477" y="885" type="qcurve" smooth="yes"/>
      <point x="435.955223881" y="885.0"/>
      <point x="408.0" y="781.298507463"/>
      <point x="408" y="641" type="qcurve" smooth="yes"/>
      <point x="408" y="469" type="line" smooth="yes"/>
      <point x="408.0" y="328.701492537"/>
      <point x="435.955223881" y="225.0"/>
    </contour>
    <contour>
      <point x="1083" y="608" type="line"/>
      <point x="1083.0" y="791.582089552"/>
      <point x="1040.28358209" y="895.0"/>
      <point x="997" y="895" type="qcurve" smooth="yes"/>
      <point x="955.955223881" y="895.0"/>
      <point x="911.0" y="788.597014925"/>
      <point x="911" y="608" type="qcurve"/>
    </contour>
  </outline>
</glyph>
<glyph name="circumflex" format="1">
  <advance width="819.2"/>
  <unicode hex="02C6"/>
  <outline>
    <contour>
      <point x="551" y="1479" type="line"/>
      <point x="709" y="1192" type="line"/>
      <point x="543" y="1192" type="line"/>
      <point x="412" y="1298" type="line"/>
      <point x="281" y="1192" type="line"/>
      <point x="111" y="1192" type="line"/>
      <point x="268" y="1479" type="line"/>
    </contour>
  </outline>
</glyph>
<glyph name="caron" format="1">
  <advance width="819.2"/>
  <unicode hex="02C7"/>
  <outline>
    <contour>
      <point x="539" y="1479" type="line"/>
      <point x="709" y="1479" type="line"/>
      <point x="551" y="1192" type="line"/>
      <point x="268" y="1192" type="line"/>
      <point x="111" y="1479" type="line"/>
      <point x="276" y="1479" type="line"/>
      <point x="408" y="1372" type="line"/>
    </contour>
  </outline>
</glyph>
<glyph name="ring" format="1">
  <advance width="819.2"/>
  <unicode hex="02DA"/>
  <outline>
    <contour>
      <point x="410" y="1585" type="qcurve" smooth="yes"/>
      <point x="518.208955224" y="1585.0"/>
      <point x="645.0" y="1469.31343284"/>
      <point x="645" y="1382" type="qcurve" smooth="yes"/>
      <point x="645.0" y="1292.44776119"/>
      <point x="518.208955224" y="1178.0"/>
      <point x="410" y="1178" type="qcurve" smooth="yes"/>
      <point x="301.044776119" y="1178.0"/>
      <point x="174.0" y="1292.44776119"/>
      <point x="174" y="1382" type="qcurve" smooth="yes"/>
      <point x="174.0" y="1469.31343284"/>
      <point x="301.044776119" y="1585.0"/>
    </contour>
    <contour>
      <point x="410" y="1288" type="qcurve" smooth="yes"/>
      <point x="449.552238806" y="1288.0"/>
      <point x="498.0" y="1340.95522388"/>
      <point x="498" y="1382" type="qcurve" smooth="yes"/>
      <point x="498.0" y="1422.29850746"/>
      <point x="448.059701493" y="1475.0"/>
      <point x="410" y="1475" type="qcurve" smooth="yes"/>
      <point x="371.194029851" y="1475.0"/>
      <point x="322.0" y="1422.29850746"/>
      <point x="322" y="1382" type="qcurve" smooth="yes"/>
      <point x="322.0" y="1340.95522388"/>
      <point x="369.701492537" y="1288.0"/>
    </contour>
  </outline>
</glyph>
<glyph name="ogonek" format="1">
  <advance width="819.2"/>
  <unicode hex="02DB"/>
  <outline>
    <contour>
      <point x="621" y="-227" type="qcurve"/>
      <point x="653" y="-324" type="line"/>
      <point x="597.029850746" y="-357.582089552"/>
      <point x="476.373134328" y="-389.0"/>
      <point x="401" y="-389" type="qcurve" smooth="yes"/>
      <point x="301.746268657" y="-389.0"/>
      <point x="199.0" y="-305.388059701"/>
      <point x="199" y="-233" type="qcurve" smooth="yes"/>
      <point x="199.0" y="-167.328358209"/>
      <point x="294.223880597" y="-50.7462686567"/>
      <point x="389" y="0" type="qcurve"/>
      <point x="526" y="0" type="line"/>
      <point x="451.373134328" y="-62.6865671642"/>
      <point x="406.0" y="-146.417910448"/>
      <point x="406" y="-180" type="qcurve" smooth="yes"/>
      <point x="406.0" y="-212.089552239"/>
      <point x="446.940298507" y="-250.0"/>
      <point x="485" y="-250" type="qcurve" smooth="yes"/>
      <point x="515.597014925" y="-250.0"/>
      <point x="577.71641791" y="-241.179104478"/>
    </contour>
  </outline>
</glyph>
<glyph name="tilde" format="1">
  <advance width="819.2"/>
  <unicode hex="02DC"/>
  <outline>
    <contour>
      <point x="565" y="1481" type="qcurve"/>
      <point x="715" y="1481" type="line"/>
      <point x="723.955223881" y="1331.0"/>
      <point x="641.268656716" y="1190.0"/>
      <point x="545" y="1190" type="qcurve" smooth="yes"/>
      <point x="457.686567164" y="1190.0"/>
      <point x="347.537313433" y="1274.0"/>
      <point x="305" y="1274" type="qcurve" smooth="yes"/>
      <point x="278.880597015" y="1274.0"/>
      <point x="255.492537313" y="1236.02985075"/>
      <point x="254" y="1192" type="qcurve"/>
      <point x="104" y="1192" type="line"/>
      <point x="93.552238806" y="1343.49253731"/>
      <point x="177.731343284" y="1485.0"/>
      <point x="274" y="1485" type="qcurve" smooth="yes"/>
      <point x="361.313432836" y="1485.0"/>
      <point x="470.955223881" y="1401.0"/>
      <point x="512" y="1401" type="qcurve" smooth="yes"/>
      <point x="538.119402985" y="1401.0"/>
      <point x="563.507462687" y="1437.71641791"/>
    </contour>
  </outline>
</glyph>
<glyph name="quoteleft" format="1">
  <advance width="487.424"/>
  <unicode hex="2018"/>
  <unicode hex="02BB"/>
  <outline>
    <contour>
      <point x="393" y="1475" type="line"/>
      <point x="438" y="879" type="line"/>
      <point x="268" y="879" type="line"/>
      <point x="31" y="1475" type="line"/>
    </contour>
  </outline>
</glyph>
<glyph name="quotedblright" format="1">
  <advance width="901.12"/>
  <unicode hex="201D"/>
  <outline>
    <contour>
      <point x="94" y="1475" type="line"/>
      <point x="446" y="1475" type="line"/>
      <point x="209" y="879" type="line"/>
      <point x="49" y="879" type="line"/>
    </contour>
    <contour>
      <point x="518" y="1475" type="line"/>
      <point x="870" y="1475" type="line"/>
      <point x="633" y="879" type="line"/>
      <point x="473" y="879" type="line"/>
    </contour>
  </outline>
</glyph>
<glyph name="dagger" format="1">
  <advance width="849.92"/>
  <unicode hex="2020"/>
  <outline>
    <contour>
      <point x="817" y="1167" type="line"/>
      <point x="817" y="858" type="line"/>
      <point x="520" y="952" type="line"/>
      <point x="600" y="690" type="line"/>
      <point x="483" y="0" type="line"/>
      <point x="367" y="0" type="line"/>
      <point x="250" y="690" type="line"/>
      <point x="330" y="952" type="line"/>
      <point x="33" y="858" type="line"/>
      <point x="33" y="1167" type="line"/>
      <point x="330" y="1071" type="line"/>
      <point x="250" y="1475" type="line"/>
      <point x="600" y="1475" type="line"/>
      <point x="520" y="1071" type="line"/>
    </contour>
  </outline>
</glyph>
<glyph name="daggerdbl" format="1">
  <advance width="876.544"/>
  <unicode hex="2021"/>
  <outline>
    <contour>
      <point x="829" y="575" type="line"/>
      <point x="829" y="266" type="line"/>
      <point x="526" y="362" type="line"/>
      <point x="614" y="0" type="line"/>
      <point x="262" y="0" type="line"/>
      <point x="350" y="362" type="line"/>
      <point x="47" y="266" type="line"/>
      <point x="47" y="575" type="line"/>
      <point x="350" y="481" type="line"/>
      <point x="268" y="737" type="line"/>
      <point x="350" y="993" type="line"/>
      <point x="47" y="899" type="line"/>
      <point x="47" y="1208" type="line"/>
      <point x="350" y="1112" type="line"/>
      <point x="262" y="1475" type="line"/>
      <point x="614" y="1475" type="line"/>
      <point x="526" y="1112" type="line"/>
      <point x="829" y="1208" type="line"/>
      <point x="829" y="899" type="line"/>
      <point x="526" y="993" type="line"/>
      <point x="608" y="737" type="line"/>
      <point x="526" y="481" type="line"/>
    </contour>
  </outline>
</glyph>
<glyph name="ellipsis" format="1">
  <advance width="1404.928"/>
  <unicode hex="2026"/>
  <outline>
    <contour>
      <point x="236" y="354" type="qcurve" smooth="yes"/>
      <point x="313.611940299" y="354.0"/>
      <point x="420.0" y="247.611940299"/>
      <point x="420" y="170" type="qcurve" smooth="yes"/>
      <point x="420.0" y="92.3880597015"/>
      <point x="313.611940299" y="-14.0"/>
      <point x="236" y="-14" type="qcurve" smooth="yes"/>
      <point x="157.641791045" y="-14.0"/>
      <point x="51.0" y="92.3880597015"/>
      <point x="51" y="170" type="qcurve" smooth="yes"/>
      <point x="51.0" y="247.611940299"/>
      <point x="157.641791045" y="354.0"/>
    </contour>
    <contour>
      <point x="702" y="354" type="qcurve" smooth="yes"/>
      <point x="780.358208955" y="354.0"/>
      <point x="887.0" y="247.611940299"/>
      <point x="887" y="170" type="qcurve" smooth="yes"/>
      <point x="887.0" y="92.3880597015"/>
      <point x="780.358208955" y="-14.0"/>
      <point x="702" y="-14" type="qcurve" smooth="yes"/>
      <point x="624.388059701" y="-14.0"/>
      <point x="518.0" y="92.3880597015"/>
      <point x="518" y="170" type="qcurve" smooth="yes"/>
      <point x="518.0" y="247.611940299"/>
      <point x="624.388059701" y="354.0"/>
    </contour>
    <contour>
      <point x="1169" y="354" type="qcurve" smooth="yes"/>
      <point x="1247.35820896" y="354.0"/>
      <point x="1354.0" y="247.611940299"/>
      <point x="1354" y="170" type="qcurve" smooth="yes"/>
      <point x="1354.0" y="92.3880597015"/>
      <point x="1247.35820896" y="-14.0"/>
      <point x="1169" y="-14" type="qcurve" smooth="yes"/>
      <point x="1091.3880597" y="-14.0"/>
      <point x="985.0" y="92.3880597015"/>
      <point x="985" y="170" type="qcurve" smooth="yes"/>
      <point x="985.0" y="247.611940299"/>
      <point x="1091.3880597" y="354.0"/>
    </contour>
  </outline>
</glyph>
<glyph name="guilsinglleft" format="1">
  <advance width="516.096"/>
  <unicode hex="2039"/>
  <outline>
    <contour>
      <point x="365" y="555" type="line"/>
      <point x="475" y="133" type="line"/>
      <point x="293" y="133" type="line"/>
      <point x="16" y="555" type="line"/>
      <point x="293" y="977" type="line"/>
      <point x="475" y="977" type="line"/>
    </contour>
  </outline>
</glyph>
<glyph name="fraction" format="1">
  <advance width="700.416"/>
  <unicode hex="2044"/>
  <outline>
    <contour>
      <point x="514" y="1505" type="line"/>
      <point x="821" y="1505" type="line"/>
      <point x="186" y="-31" type="line"/>
      <point x="-121" y="-31" type="line"/>
    </contour>
  </outline>
</glyph>
<glyph name="Euro" format="1">
  <advance width="1003.52"/>
  <unicode hex="20AC"/>
  <outline>
    <contour>
      <point x="711" y="428" type="qcurve"/>
      <point x="989" y="272" type="line"/>
      <point x="943.47761194" y="146.626865672"/>
      <point x="749.134328358" y="-25.0"/>
      <point x="526" y="-25" type="qcurve" smooth="yes"/>
      <point x="309.582089552" y="-25.0"/>
      <point x="35.0" y="278.686567164"/>
      <point x="35" y="666" type="qcurve" smooth="yes"/>
      <point x="35" y="809" type="line" smooth="yes"/>
      <point x="35.0" y="1192.58208955"/>
      <point x="312.089552239" y="1499.0"/>
      <point x="530" y="1499" type="qcurve" smooth="yes"/>
      <point x="753.134328358" y="1499.0"/>
      <point x="940.970149254" y="1322.89552239"/>
      <point x="985" y="1202" type="qcurve"/>
      <point x="707" y="1047" type="line"/>
      <point x="676.402985075" y="1124.6119403"/>
      <point x="606.701492537" y="1204.0"/>
      <point x="547" y="1204" type="qcurve" smooth="yes"/>
      <point x="481.328358209" y="1204.0"/>
      <point x="416.0" y="1071.40298507"/>
      <point x="416" y="952" type="qcurve"/>
      <point x="770" y="952" type="line"/>
      <point x="770" y="764" type="line"/>
      <point x="412" y="764" type="line"/>
      <point x="412" y="690" type="line"/>
      <point x="770" y="690" type="line"/>
      <point x="770" y="502" type="line"/>
      <point x="418" y="502" type="line"/>
      <point x="418.0" y="390.059701493"/>
      <point x="481.895522388" y="270.0"/>
      <point x="561" y="270" type="qcurve" smooth="yes"/>
      <point x="610.253731343" y="270.0"/>
      <point x="680.402985075" y="350.388059701"/>
    </contour>
  </outline>
</glyph>
<glyph name="uni2117" format="1">
  <advance width="1335.296"/>
  <unicode hex="2117"/>
  <outline>
    <contour>
      <point x="670" y="1499" type="qcurve" smooth="yes"/>
      <point x="935.671641791" y="1499.0"/>
      <point x="1288.0" y="1063.62686567"/>
      <point x="1288" y="739" type="qcurve" smooth="yes"/>
      <point x="1288.0" y="415.119402985"/>
      <point x="933.164179104" y="-25.0"/>
      <point x="666" y="-25" type="qcurve" smooth="yes"/>
      <point x="399.582089552" y="-25.0"/>
      <point x="47.0" y="408.134328358"/>
      <point x="47" y="735" type="qcurve" smooth="yes"/>
      <point x="47.0" y="1062.6119403"/>
      <point x="402.089552239" y="1499.0"/>
    </contour>
    <contour>
      <point x="670" y="53" type="qcurve" smooth="yes"/>
      <point x="912.537313433" y="53.0"/>
      <point x="1206.0" y="450.671641791"/>
      <point x="1206" y="735" type="qcurve" smooth="yes"/>
      <point x="1206.0" y="1019.32835821"/>
      <point x="910.029850746" y="1421.0"/>
      <point x="666" y="1421" type="qcurve" smooth="yes"/>
      <point x="422.71641791" y="1421.0"/>
      <point x="129.0" y="1023.32835821"/>
      <point x="129" y="739" type="qcurve" smooth="yes"/>
      <point x="129.0" y="454.671641791"/>
      <point x="425.223880597" y="53.0"/>
    </contour>
    <contour>
      <point x="686" y="1188" type="line" smooth="yes"/>
      <point x="826.298507463" y="1188.0"/>
      <point x="991.0" y="1049.53731343"/>
      <point x="991" y="907" type="qcurve" smooth="yes"/>
      <point x="991.0" y="756.253731343"/>
      <point x="829.044776119" y="604.0"/>
      <point x="688" y="604" type="qcurve" smooth="yes"/>
      <point x="682" y="604" type="line"/>
      <point x="682" y="303" type="line"/>
      <point x="444" y="303" type="line"/>
      <point x="444" y="1188" type="line"/>
    </contour>
    <contour>
      <point x="684" y="782" type="line" smooth="yes"/>
      <point x="726.537313433" y="782.0"/>
      <point x="764.0" y="845.776119403"/>
      <point x="764" y="901" type="qcurve" smooth="yes"/>
      <point x="764.0" y="956.223880597"/>
      <point x="725.044776119" y="1014.0"/>
      <point x="684" y="1014" type="qcurve" smooth="yes"/>
      <point x="680" y="1014" type="line"/>
      <point x="680" y="782" type="line"/>
    </contour>
  </outline>
</glyph>
<glyph name="trademark" format="1">
  <advance width="1249.28"/>
  <unicode hex="2122"/>
  <outline>
    <contour>
      <point x="1202" y="1473" type="line"/>
      <point x="1202" y="780" type="line"/>
      <point x="1024" y="780" type="line"/>
      <point x="1024" y="1253" type="line"/>
      <point x="1020" y="1253" type="line"/>
      <point x="952" y="780" type="line"/>
      <point x="758" y="780" type="line"/>
      <point x="690" y="1253" type="line"/>
      <point x="686" y="1253" type="line"/>
      <point x="686" y="780" type="line"/>
      <point x="520" y="780" type="line"/>
      <point x="520" y="1473" type="line"/>
      <point x="801" y="1473" type="line"/>
      <point x="860" y="1022" type="line"/>
      <point x="864" y="1022" type="line"/>
      <point x="924" y="1473" type="line"/>
    </contour>
    <contour>
      <point x="479" y="1475" type="line"/>
      <point x="479" y="1315" type="line"/>
      <point x="352" y="1315" type="line"/>
      <point x="352" y="784" type="line"/>
      <point x="160" y="784" type="line"/>
      <point x="160" y="1315" type="line"/>
      <point x="35" y="1315" type="line"/>
      <point x="35" y="1475" type="line"/>
    </contour>
  </outline>
</glyph>
<glyph name="radical" format="1">
  <advance width="1105.92"/>
  <unicode hex="221A"/>
  <outline>
    <contour>
      <point x="686" y="1475" type="line"/>
      <point x="1092" y="1475" type="line"/>
      <point x="743" y="-8" type="line"/>
      <point x="260" y="-8" type="line"/>
      <point x="10" y="696" type="line"/>
      <point x="391" y="696" type="line"/>
      <point x="492" y="328" type="line"/>
    </contour>
  </outline>
</glyph>
<glyph name="apple" format="1">
  <advance width="1024.0"/>
  <unicode hex="F8FF"/>
  <outline>
    <contour>
      <point x="625" y="455" type="line"/>
      <point x="983" y="467" type="line"/>
      <point x="862" y="102" type="line"/>
      <point x="582" y="326" type="line"/>
      <point x="707" y="0" type="line"/>
      <point x="317" y="0" type="line"/>
      <point x="442" y="326" type="line"/>
      <point x="162" y="102" type="line"/>
      <point x="41" y="467" type="line"/>
      <point x="399" y="455" type="line"/>
      <point x="53" y="727" type="line"/>
      <point x="53" y="748" type="line"/>
      <point x="399" y="1020" type="line"/>
      <point x="41" y="1008" type="line"/>
      <point x="162" y="1372" type="line"/>
      <point x="442" y="1149" type="line"/>
      <point x="317" y="1475" type="line"/>
      <point x="707" y="1475" type="line"/>
      <point x="582" y="1149" type="line"/>
      <point x="862" y="1372" type="line"/>
      <point x="983" y="1008" type="line"/>
      <point x="625" y="1020" type="line"/>
      <point x="971" y="748" type="line"/>
      <point x="971" y="727" type="line"/>
    </contour>
    <contour>
      <point x="512" y="487" type="line"/>
      <point x="637" y="737" type="line"/>
      <point x="512" y="987" type="line"/>
      <point x="387" y="737" type="line"/>
    </contour>
  </outline>
</glyph>
<glyph name="fi" format="1">
  <advance width="1173.504"/>
  <unicode hex="FB01"/>
  <outline>
    <contour>
      <point x="682" y="1538" type="qcurve"/>
      <point x="682" y="1298" type="line"/>
      <point x="664.835820896" y="1303.2238806"/>
      <point x="631.641791045" y="1307.0"/>
      <point x="610" y="1307" type="qcurve" smooth="yes"/>
      <point x="560.0" y="1307.0"/>
      <point x="506.0" y="1252.68656716"/>
      <point x="506" y="1190" type="qcurve" smooth="yes"/>
      <point x="506" y="1106" type="line"/>
      <point x="678" y="1106" type="line"/>
      <point x="678" y="858" type="line"/>
      <point x="506" y="858" type="line"/>
      <point x="506" y="0" type="line"/>
      <point x="135" y="0" type="line"/>
      <point x="135" y="858" type="line"/>
      <point x="4" y="858" type="line"/>
      <point x="4" y="1106" type="line"/>
      <point x="135" y="1106" type="line"/>
      <point x="135" y="1223" type="line" smooth="yes"/>
      <point x="135.0" y="1384.94029851"/>
      <point x="312.104477612" y="1554.0"/>
      <point x="483" y="1554" type="qcurve" smooth="yes"/>
      <point x="553.895522388" y="1554.0"/>
      <point x="642.447761194" y="1546.95522388"/>
    </contour>
    <contour>
      <point x="1120" y="1110" type="line"/>
      <point x="1120" y="0" type="line"/>
      <point x="739" y="0" type="line"/>
      <point x="739" y="1110" type="line"/>
    </contour>
    <contour>
      <point x="1122" y="1475" type="line"/>
      <point x="1122" y="1204" type="line"/>
      <point x="737" y="1204" type="line"/>
      <point x="737" y="1475" type="line"/>
    </contour>
  </outline>
</glyph>
<glyph name="I.salt" format="1">
  <advance width="524.288"/>
  <outline>
    <contour>
      <point x="463" y="1475" type="line"/>
      <point x="463" y="0" type="line"/>
      <point x="61" y="0" type="line"/>
      <point x="61" y="1475" type="line"/>
    </contour>
  </outline>
</glyph>
<glyph name="bullet" format="1">
  <advance width="819.2"/>
  <outline>
    <contour>
      <point x="410" y="1116" type="qcurve" smooth="yes"/>
      <point x="556.268656716" y="1116.0"/>
      <point x="762.0" y="911.014925373"/>
      <point x="762" y="764" type="qcurve" smooth="yes"/>
      <point x="762.0" y="616.985074627"/>
      <point x="556.268656716" y="412.0"/>
      <point x="410" y="412" type="qcurve" smooth="yes"/>
      <point x="262.985074627" y="412.0"/>
      <point x="57.0" y="616.985074627"/>
      <point x="57" y="764" type="qcurve" smooth="yes"/>
      <point x="57.0" y="911.014925373"/>
      <point x="262.985074627" y="1116.0"/>
    </contour>
  </outline>
</glyph>
<glyph name="registered" format="1">
  <advance width="823.296"/>
  <outline>
    <contour>
      <point x="526" y="1006" type="qcurve"/>
      <point x="604" y="774" type="line"/>
      <point x="459" y="774" type="line"/>
      <point x="403" y="965" type="line"/>
      <point x="395" y="965" type="line"/>
      <point x="395" y="774" type="line"/>
      <point x="254" y="774" type="line"/>
      <point x="254" y="1305" type="line"/>
      <point x="412" y="1305" type="line" smooth="yes"/>
      <point x="489.611940299" y="1305.0"/>
      <point x="588.0" y="1225.08955224"/>
      <point x="588" y="1143" type="qcurve" smooth="yes"/>
      <point x="588.0" y="1095.23880597"/>
      <point x="555.104477612" y="1026.89552239"/>
    </contour>
    <contour>
      <point x="414" y="1485" type="qcurve" smooth="yes"/>
      <point x="572.955223881" y="1485.0"/>
      <point x="784.0" y="1224.02985075"/>
      <point x="784" y="1030" type="qcurve" smooth="yes"/>
      <point x="784.0" y="834.47761194"/>
      <point x="570.447761194" y="571.0"/>
      <point x="410" y="571" type="qcurve" smooth="yes"/>
      <point x="251.044776119" y="571.0"/>
      <point x="39.0" y="830.47761194"/>
      <point x="39" y="1026" type="qcurve" smooth="yes"/>
      <point x="39.0" y="1223.01492537"/>
      <point x="253.552238806" y="1485.0"/>
    </contour>
    <contour>
      <point x="414" y="618" type="qcurve" smooth="yes"/>
      <point x="558.776119403" y="618.0"/>
      <point x="735.0" y="856.597014925"/>
      <point x="735" y="1026" type="qcurve" smooth="yes"/>
      <point x="735.0" y="1196.89552239"/>
      <point x="556.268656716" y="1438.0"/>
      <point x="410" y="1438" type="qcurve" smooth="yes"/>
      <point x="264.47761194" y="1438.0"/>
      <point x="88.0" y="1199.40298507"/>
      <point x="88" y="1030" type="qcurve" smooth="yes"/>
      <point x="88.0" y="859.104477612"/>
      <point x="266.985074627" y="618.0"/>
    </contour>
    <contour>
      <point x="401" y="1059" type="line" smooth="yes"/>
      <point x="427.119402985" y="1059.0"/>
      <point x="453.0" y="1101.41791045"/>
      <point x="453" y="1135" type="qcurve" smooth="yes"/>
      <point x="453.0" y="1168.58208955"/>
      <point x="427.119402985" y="1204.0"/>
      <point x="401" y="1204" type="qcurve" smooth="yes"/>
      <point x="395" y="1204" type="line"/>
      <point x="395" y="1059" type="line"/>
    </contour>
  </outline>
</glyph>
